{
.appVersion = "3214";
.formatVersion = 3;
customParameters = (
{
name = glyphOrder;
value = (
.notdef,
space
);
},
{
name = ROS;
value = "Adobe-Identity-0";
}
);
date = "2023-07-12 15:00:33 +0000";
familyName = ProPro;
featurePrefixes = (
{
automatic = 1;
code = "languagesystem DFLT dflt;
";
name = Languagesystems;
}
);
features = (
{
automatic = 1;
code = "feature cv01;
";
tag = aalt;
},
{
automatic = 1;
code = "sub A by A.cv01;
sub C by C.cv01;
sub G by G.cv01;
sub J by J.cv01;
sub ke-kata by ke-kata.cv01;
sub kesmall-kata by kesmall-kata.cv01;
sub ge-kata by ge-kata.cv01;
sub no-kata by no-kata.cv01;
sub ha-kata by ha-kata.cv01;
sub ba-kata by ba-kata.cv01;
sub pa-kata by pa-kata.cv01;
sub pu-kata by pu-kata.cv01;
sub ru-kata by ru-kata.cv01;
sub nine by nine.cv01;
sub prolonged-kana by prolonged-kana.cv01;
";
tag = cv01;
}
);
fontMaster = (
{
guides = (
{
locked = 1;
pos = (279,594);
},
{
angle = 90;
locked = 1;
pos = (660,345);
}
);
id = m01;
metricValues = (
{
pos = 880;
},
{
},
{
pos = -120;
}
);
name = Regular;
stemValues = (
66,
102,
174,
264,
66,
102,
174
);
userData = {
GSCornerRadius = 33;
};
visible = 1;
}
);
glyphs = (
{
glyphname = A;
lastChange = "2023-07-29 00:52:41 +0000";
layers = (
{
layerId = m01;
shapes = (
{
closed = 1;
nodes = (
(102,0,ls),
(123,0,o),
(135,12,o),
(135,33,cs),
(135,231,ls),
(135,252,o),
(147,264,o),
(168,264,cs),
(321,264,ls),
(342,264,o),
(354,252,o),
(354,231,cs),
(354,33,ls),
(354,12,o),
(366,0,o),
(387,0,cs),
(495,0,ls),
(516,0,o),
(528,12,o),
(528,33,cs),
(528,297,ls),
(528,318,o),
(516,330,o),
(495,330,cs),
(495,330,ls),
(474,330,o),
(462,342,o),
(462,363,cs),
(462,561,ls),
(462,582,o),
(450,594,o),
(429,594,cs),
(132,594,ls),
(111,594,o),
(99,582,o),
(99,561,cs),
(99,363,ls),
(99,342,o),
(87,330,o),
(66,330,cs),
(66,330,ls),
(45,330,o),
(33,318,o),
(33,297,cs),
(33,33,ls),
(33,12,o),
(45,0,o),
(66,0,cs)
);
},
{
closed = 1;
nodes = (
(165,495,ls),
(165,516,o),
(177,528,o),
(198,528,cs),
(327,528,ls),
(348,528,o),
(360,516,o),
(360,495,cs),
(360,363,ls),
(360,342,o),
(348,330,o),
(327,330,cs),
(198,330,ls),
(177,330,o),
(165,342,o),
(165,363,cs)
);
}
);
width = 561;
}
);
unicode = 65;
},
{
glyphname = B;
lastChange = "2023-07-29 00:52:50 +0000";
layers = (
{
layerId = m01;
shapes = (
{
closed = 1;
nodes = (
(495,0,ls),
(516,0,o),
(528,12,o),
(528,33,cs),
(528,297,ls),
(528,318,o),
(516,330,o),
(495,330,cs),
(495,330,ls),
(474,330,o),
(462,342,o),
(462,363,cs),
(462,561,ls),
(462,582,o),
(450,594,o),
(429,594,cs),
(66,594,ls),
(45,594,o),
(33,582,o),
(33,561,cs),
(33,33,ls),
(33,12,o),
(45,0,o),
(66,0,cs)
);
},
{
closed = 1;
nodes = (
(207,231,ls),
(207,252,o),
(219,264,o),
(240,264,cs),
(393,264,ls),
(414,264,o),
(426,252,o),
(426,231,cs),
(426,99,ls),
(426,78,o),
(414,66,o),
(393,66,cs),
(240,66,ls),
(219,66,o),
(207,78,o),
(207,99,cs)
);
},
{
closed = 1;
nodes = (
(99,495,ls),
(99,516,o),
(111,528,o),
(132,528,cs),
(327,528,ls),
(348,528,o),
(360,516,o),
(360,495,cs),
(360,363,ls),
(360,342,o),
(348,330,o),
(327,330,cs),
(132,330,ls),
(111,330,o),
(99,342,o),
(99,363,cs)
);
}
);
width = 561;
}
);
unicode = 66;
},
{
glyphname = C;
lastChange = "2023-07-29 00:53:21 +0000";
layers = (
{
layerId = m01;
shapes = (
{
closed = 1;
nodes = (
(495,0,ls),
(516,0,o),
(528,12,o),
(528,33,cs),
(528,141,ls),
(528,162,o),
(516,174,o),
(495,174,cs),
(387,174,ls),
(366,174,o),
(354,162,o),
(354,141,cs),
(354,99,ls),
(354,78,o),
(342,66,o),
(321,66,cs),
(168,66,ls),
(147,66,o),
(135,78,o),
(135,99,cs),
(135,495,ls),
(135,516,o),
(147,528,o),
(168,528,cs),
(393,528,ls),
(414,528,o),
(426,516,o),
(426,495,cs),
(426,453,ls),
(426,432,o),
(438,420,o),
(459,420,cs),
(495,420,ls),
(516,420,o),
(528,432,o),
(528,453,cs),
(528,561,ls),
(528,582,o),
(516,594,o),
(495,594,cs),
(66,594,ls),
(45,594,o),
(33,582,o),
(33,561,cs),
(33,33,ls),
(33,12,o),
(45,0,o),
(66,0,cs)
);
}
);
width = 561;
}
);
unicode = 67;
},
{
glyphname = D;
lastChange = "2023-07-29 00:53:39 +0000";
layers = (
{
layerId = m01;
shapes = (
{
closed = 1;
nodes = (
(495,0,ls),
(516,0,o),
(528,12,o),
(528,33,cs),
(528,561,ls),
(528,582,o),
(516,594,o),
(495,594,cs),
(66,594,ls),
(45,594,o),
(33,582,o),
(33,561,cs),
(33,33,ls),
(33,12,o),
(45,0,o),
(66,0,cs)
);
},
{
closed = 1;
nodes = (
(426,99,ls),
(426,78,o),
(414,66,o),
(393,66,cs),
(240,66,ls),
(219,66,o),
(207,78,o),
(207,99,cs),
(207,297,ls),
(207,318,o),
(195,330,o),
(174,330,cs),
(132,330,ls),
(111,330,o),
(99,342,o),
(99,363,cs),
(99,495,ls),
(99,516,o),
(111,528,o),
(132,528,cs),
(393,528,ls),
(414,528,o),
(426,516,o),
(426,495,cs)
);
}
);
width = 561;
}
);
unicode = 68;
},
{
glyphname = E;
lastChange = "2023-07-29 00:53:48 +0000";
layers = (
{
layerId = m01;
shapes = (
{
closed = 1;
nodes = (
(495,0,ls),
(516,0,o),
(528,12,o),
(528,33,cs),
(528,33,ls),
(528,54,o),
(516,66,o),
(495,66,cs),
(240,66,ls),
(219,66,o),
(207,78,o),
(207,99,cs),
(207,231,ls),
(207,252,o),
(219,264,o),
(240,264,cs),
(495,264,ls),
(516,264,o),
(528,276,o),
(528,297,cs),
(528,297,ls),
(528,318,o),
(516,330,o),
(495,330,cs),
(168,330,ls),
(147,330,o),
(135,342,o),
(135,363,cs),
(135,495,ls),
(135,516,o),
(147,528,o),
(168,528,cs),
(495,528,ls),
(516,528,o),
(528,540,o),
(528,561,cs),
(528,561,ls),
(528,582,o),
(516,594,o),
(495,594,cs),
(66,594,ls),
(45,594,o),
(33,582,o),
(33,561,cs),
(33,33,ls),
(33,12,o),
(45,0,o),
(66,0,cs)
);
}
);
width = 561;
}
);
unicode = 69;
},
{
glyphname = F;
lastChange = "2023-07-29 06:46:30 +0000";
layers = (
{
layerId = m01;
shapes = (
{
closed = 1;
nodes = (
(207,231,ls),
(207,252,o),
(219,264,o),
(240,264,cs),
(495,264,ls),
(516,264,o),
(528,276,o),
(528,297,cs),
(528,297,ls),
(528,318,o),
(516,330,o),
(495,330,cs),
(168,330,ls),
(147,330,o),
(135,342,o),
(135,363,cs),
(135,495,ls),
(135,516,o),
(147,528,o),
(168,528,cs),
(495,528,ls),
(516,528,o),
(528,540,o),
(528,561,cs),
(528,561,ls),
(528,582,o),
(516,594,o),
(495,594,cs),
(66,594,ls),
(45,594,o),
(33,582,o),
(33,561,cs),
(33,33,ls),
(33,12,o),
(45,0,o),
(66,0,cs),
(174,0,ls),
(195,0,o),
(207,12,o),
(207,33,cs)
);
}
);
width = 561;
}
);
unicode = 70;
},
{
glyphname = G;
lastChange = "2023-07-29 01:07:58 +0000";
layers = (
{
layerId = m01;
shapes = (
{
closed = 1;
nodes = (
(495,0,ls),
(516,0,o),
(528,12,o),
(528,33,cs),
(528,297,ls),
(528,318,o),
(516,330,o),
(495,330,cs),
(315,330,ls),
(294,330,o),
(282,318,o),
(282,297,cs),
(282,297,ls),
(282,276,o),
(294,264,o),
(315,264,cs),
(321,264,ls),
(342,264,o),
(354,252,o),
(354,231,cs),
(354,99,ls),
(354,78,o),
(342,66,o),
(321,66,cs),
(168,66,ls),
(147,66,o),
(135,78,o),
(135,99,cs),
(135,495,ls),
(135,516,o),
(147,528,o),
(168,528,cs),
(393,528,ls),
(414,528,o),
(426,516,o),
(426,495,cs),
(426,453,ls),
(426,432,o),
(438,420,o),
(459,420,cs),
(495,420,ls),
(516,420,o),
(528,432,o),
(528,453,cs),
(528,561,ls),
(528,582,o),
(516,594,o),
(495,594,cs),
(66,594,ls),
(45,594,o),
(33,582,o),
(33,561,cs),
(33,33,ls),
(33,12,o),
(45,0,o),
(66,0,cs)
);
}
);
width = 561;
}
);
unicode = 71;
},
{
glyphname = H;
lastChange = "2023-07-29 00:54:04 +0000";
layers = (
{
layerId = m01;
shapes = (
{
closed = 1;
nodes = (
(33,33,ls),
(33,12,o),
(45,0,o),
(66,0,cs),
(102,0,ls),
(123,0,o),
(135,12,o),
(135,33,cs),
(135,231,ls),
(135,252,o),
(147,264,o),
(168,264,cs),
(321,264,ls),
(342,264,o),
(354,252,o),
(354,231,cs),
(354,33,ls),
(354,12,o),
(366,0,o),
(387,0,cs),
(495,0,ls),
(516,0,o),
(528,12,o),
(528,33,cs),
(528,561,ls),
(528,582,o),
(516,594,o),
(495,594,cs),
(459,594,ls),
(438,594,o),
(426,582,o),
(426,561,cs),
(426,363,ls),
(426,342,o),
(414,330,o),
(393,330,cs),
(132,330,ls),
(111,330,o),
(99,342,o),
(99,363,cs),
(99,561,ls),
(99,582,o),
(87,594,o),
(66,594,cs),
(66,594,ls),
(45,594,o),
(33,582,o),
(33,561,cs)
);
}
);
width = 561;
}
);
unicode = 72;
},
{
glyphname = I;
lastChange = "2023-07-29 00:55:44 +0000";
layers = (
{
layerId = m01;
shapes = (
{
closed = 1;
nodes = (
(174,0,ls),
(195,0,o),
(207,12,o),
(207,33,cs),
(207,297,ls),
(207,318,o),
(195,330,o),
(174,330,cs),
(168,330,ls),
(147,330,o),
(135,342,o),
(135,363,cs),
(135,561,ls),
(135,582,o),
(123,594,o),
(102,594,cs),
(66,594,ls),
(45,594,o),
(33,582,o),
(33,561,cs),
(33,33,ls),
(33,12,o),
(45,0,o),
(66,0,cs)
);
}
);
width = 240;
}
);
unicode = 73;
},
{
glyphname = J;
lastChange = "2023-07-29 06:46:39 +0000";
layers = (
{
layerId = m01;
shapes = (
{
closed = 1;
nodes = (
(495,0,ls),
(516,0,o),
(528,12,o),
(528,33,cs),
(528,561,ls),
(528,582,o),
(516,594,o),
(495,594,cs),
(459,594,ls),
(438,594,o),
(426,582,o),
(426,561,cs),
(426,99,ls),
(426,78,o),
(414,66,o),
(393,66,cs),
(240,66,ls),
(219,66,o),
(207,78,o),
(207,99,cs),
(207,143,ls),
(207,164,o),
(195,176,o),
(174,176,cs),
(66,176,ls),
(45,176,o),
(33,164,o),
(33,143,cs),
(33,33,ls),
(33,12,o),
(45,0,o),
(66,0,cs)
);
}
);
width = 561;
}
);
unicode = 74;
},
{
glyphname = K;
lastChange = "2023-07-29 01:14:26 +0000";
layers = (
{
layerId = m01;
shapes = (
{
closed = 1;
nodes = (
(33,33,ls),
(33,12,o),
(45,0,o),
(66,0,cs),
(174,0,ls),
(195,0,o),
(207,12,o),
(207,33,cs),
(207,231,ls),
(207,252,o),
(219,264,o),
(240,264,cs),
(393,264,ls),
(414,264,o),
(426,252,o),
(426,231,cs),
(426,33,ls),
(426,12,o),
(438,0,o),
(459,0,cs),
(495,0,ls),
(516,0,o),
(528,12,o),
(528,33,cs),
(528,297,ls),
(528,318,o),
(516,330,o),
(495,330,cs),
(455,330,ls),
(429,330,o),
(419,348,o),
(432,370,cs),
(522,527,ls),
(532,545,o),
(527,562,o),
(509,573,cs),
(481,589,ls),
(463,600,o),
(445,595,o),
(435,577,cs),
(306,353,ls),
(297,338,o),
(285,330,o),
(267,330,cs),
(132,330,ls),
(111,330,o),
(99,342,o),
(99,363,cs),
(99,561,ls),
(99,582,o),
(87,594,o),
(66,594,cs),
(66,594,ls),
(45,594,o),
(33,582,o),
(33,561,cs)
);
}
);
width = 561;
}
);
unicode = 75;
},
{
glyphname = L;
lastChange = "2023-07-29 01:14:45 +0000";
layers = (
{
layerId = m01;
shapes = (
{
closed = 1;
nodes = (
(495,0,ls),
(516,0,o),
(528,12,o),
(528,33,cs),
(528,33,ls),
(528,54,o),
(516,66,o),
(495,66,cs),
(240,66,ls),
(219,66,o),
(207,78,o),
(207,99,cs),
(207,297,ls),
(207,318,o),
(195,330,o),
(174,330,cs),
(168,330,ls),
(147,330,o),
(135,342,o),
(135,363,cs),
(135,561,ls),
(135,582,o),
(123,594,o),
(102,594,cs),
(66,594,ls),
(45,594,o),
(33,582,o),
(33,561,cs),
(33,33,ls),
(33,12,o),
(45,0,o),
(66,0,cs)
);
}
);
width = 561;
}
);
unicode = 76;
},
{
glyphname = N;
lastChange = "2023-07-29 01:28:47 +0000";
layers = (
{
layerId = m01;
shapes = (
{
closed = 1;
nodes = (
(66,594,ls),
(45,594,o),
(33,582,o),
(33,561,cs),
(33,33,ls),
(33,12,o),
(45,0,o),
(66,0,cs),
(174,0,ls),
(195,0,o),
(207,12,o),
(207,33,cs),
(207,297,ls),
(207,318,o),
(195,330,o),
(174,330,cs),
(132,330,ls),
(111,330,o),
(99,342,o),
(99,363,cs),
(99,456,ls),
(99,484,o),
(117,494,o),
(139,475,cs),
(407,250,ls),
(420,239,o),
(426,226,o),
(426,209,cs),
(426,33,ls),
(426,12,o),
(438,0,o),
(459,0,cs),
(495,0,ls),
(516,0,o),
(528,12,o),
(528,33,cs),
(528,561,ls),
(528,582,o),
(516,594,o),
(495,594,cs),
(459,594,ls),
(438,594,o),
(426,582,o),
(426,561,cs),
(426,375,ls),
(426,347,o),
(408,338,o),
(386,356,cs),
(117,579,ls),
(105,589,o),
(92,594,o),
(76,594,cs)
);
}
);
width = 561;
}
);
unicode = 78;
},
{
glyphname = O;
lastChange = "2023-07-29 02:01:30 +0000";
layers = (
{
layerId = m01;
shapes = (
{
closed = 1;
nodes = (
(0,0,l),
(495,0,l),
(495,66,l),
(0,66,l)
);
},
{
closed = 1;
nodes = (
(0,528,l),
(495,528,l),
(495,594,l),
(0,594,l)
);
},
{
closed = 1;
nodes = (
(0,297,l),
(66,297,l),
(66,594,l),
(0,594,l)
);
},
{
closed = 1;
nodes = (
(0,0,l),
(66,0,l),
(66,330,l),
(0,330,l)
);
},
{
closed = 1;
nodes = (
(321,297,l),
(495,297,l),
(495,594,l),
(321,594,l)
);
},
{
closed = 1;
nodes = (
(321,0,l),
(495,0,l),
(495,330,l),
(321,330,l)
);
}
);
width = 600;
}
);
unicode = 79;
},
{
glyphname = P;
lastChange = "2023-07-29 01:39:38 +0000";
layers = (
{
layerId = m01;
shapes = (
{
closed = 1;
nodes = (
(33,33,ls),
(33,12,o),
(45,0,o),
(66,0,cs),
(174,0,ls),
(195,0,o),
(207,12,o),
(207,33,cs),
(207,231,ls),
(207,252,o),
(219,264,o),
(240,264,cs),
(495,264,ls),
(516,264,o),
(528,276,o),
(528,297,cs),
(528,561,ls),
(528,582,o),
(516,594,o),
(495,594,cs),
(66,594,ls),
(45,594,o),
(33,582,o),
(33,561,cs)
);
},
{
closed = 1;
nodes = (
(99,495,ls),
(99,516,o),
(111,528,o),
(132,528,cs),
(393,528,ls),
(414,528,o),
(426,516,o),
(426,495,cs),
(426,363,ls),
(426,342,o),
(414,330,o),
(393,330,cs),
(132,330,ls),
(111,330,o),
(99,342,o),
(99,363,cs)
);
}
);
width = 561;
}
);
unicode = 80;
},
{
glyphname = A.cv01;
lastChange = "2023-07-29 00:56:53 +0000";
layers = (
{
layerId = m01;
shapes = (
{
closed = 1;
nodes = (
(516,0,o),
(528,12,o),
(528,33,cs),
(528,297,ls),
(528,318,o),
(516,330,o),
(495,330,cs),
(495,330,ls),
(474,330,o),
(462,342,o),
(462,363,cs),
(462,561,ls),
(462,582,o),
(450,594,o),
(429,594,cs),
(132,594,ls),
(111,594,o),
(99,582,o),
(99,561,cs),
(99,363,ls),
(99,342,o),
(87,330,o),
(66,330,cs),
(66,330,ls),
(45,330,o),
(33,318,o),
(33,297,cs),
(33,33,ls),
(33,12,o),
(45,0,o),
(66,0,cs),
(174,0,ls),
(195,0,o),
(207,12,o),
(207,33,cs),
(207,231,ls),
(207,252,o),
(219,264,o),
(240,264,cs),
(393,264,ls),
(414,264,o),
(426,252,o),
(426,231,cs),
(426,33,ls),
(426,12,o),
(438,0,o),
(459,0,cs),
(495,0,ls)
);
},
{
closed = 1;
nodes = (
(396,342,o),
(384,330,o),
(363,330,cs),
(234,330,ls),
(213,330,o),
(201,342,o),
(201,363,cs),
(201,495,ls),
(201,516,o),
(213,528,o),
(234,528,cs),
(363,528,ls),
(384,528,o),
(396,516,o),
(396,495,cs),
(396,363,ls)
);
}
);
width = 561;
}
);
},
{
glyphname = C.cv01;
lastChange = "2023-07-29 00:57:32 +0000";
layers = (
{
layerId = m01;
shapes = (
{
closed = 1;
nodes = (
(495,0,ls),
(516,0,o),
(528,12,o),
(528,33,cs),
(528,99,ls),
(528,120,o),
(516,132,o),
(495,132,cs),
(459,132,ls),
(438,132,o),
(426,120,o),
(426,99,cs),
(426,99,ls),
(426,78,o),
(414,66,o),
(393,66,cs),
(240,66,ls),
(219,66,o),
(207,78,o),
(207,99,cs),
(207,297,ls),
(207,318,o),
(195,330,o),
(174,330,cs),
(132,330,ls),
(111,330,o),
(99,342,o),
(99,363,cs),
(99,495,ls),
(99,516,o),
(111,528,o),
(132,528,cs),
(393,528,ls),
(414,528,o),
(426,516,o),
(426,495,cs),
(426,495,ls),
(426,474,o),
(438,462,o),
(459,462,cs),
(495,462,ls),
(516,462,o),
(528,474,o),
(528,495,cs),
(528,561,ls),
(528,582,o),
(516,594,o),
(495,594,cs),
(66,594,ls),
(45,594,o),
(33,582,o),
(33,561,cs),
(33,33,ls),
(33,12,o),
(45,0,o),
(66,0,cs)
);
}
);
width = 561;
}
);
},
{
glyphname = G.cv01;
lastChange = "2023-07-29 01:04:47 +0000";
layers = (
{
layerId = m01;
shapes = (
{
closed = 1;
nodes = (
(33,33,ls),
(33,12,o),
(45,0,o),
(66,0,cs),
(495,0,ls),
(516,0,o),
(528,12,o),
(528,33,cs),
(528,297,ls),
(528,318,o),
(516,330,o),
(495,330,cs),
(387,330,ls),
(366,330,o),
(354,318,o),
(354,297,cs),
(354,297,ls),
(354,276,o),
(366,264,o),
(387,264,cs),
(393,264,ls),
(414,264,o),
(426,252,o),
(426,231,cs),
(426,99,ls),
(426,78,o),
(414,66,o),
(393,66,cs),
(240,66,ls),
(219,66,o),
(207,78,o),
(207,99,cs),
(207,297,ls),
(207,318,o),
(195,330,o),
(174,330,cs),
(132,330,ls),
(111,330,o),
(99,342,o),
(99,363,cs),
(99,495,ls),
(99,516,o),
(111,528,o),
(132,528,cs),
(393,528,ls),
(414,528,o),
(426,516,o),
(426,495,cs),
(426,495,ls),
(426,474,o),
(438,462,o),
(459,462,cs),
(495,462,ls),
(516,462,o),
(528,474,o),
(528,495,cs),
(528,561,ls),
(528,582,o),
(516,594,o),
(495,594,cs),
(66,594,ls),
(45,594,o),
(33,582,o),
(33,561,cs)
);
}
);
width = 561;
}
);
},
{
glyphname = J.cv01;
lastChange = "2023-07-29 06:46:55 +0000";
layers = (
{
layerId = m01;
shapes = (
{
closed = 1;
nodes = (
(33,33,ls),
(33,12,o),
(45,0,o),
(66,0,cs),
(495,0,ls),
(516,0,o),
(528,12,o),
(528,33,cs),
(528,561,ls),
(528,582,o),
(516,594,o),
(495,594,cs),
(459,594,ls),
(438,594,o),
(426,582,o),
(426,561,cs),
(426,363,ls),
(426,342,o),
(414,330,o),
(393,330,cs),
(387,330,ls),
(366,330,o),
(354,318,o),
(354,297,cs),
(354,99,ls),
(354,78,o),
(342,66,o),
(321,66,cs),
(168,66,ls),
(147,66,o),
(135,78,o),
(135,99,cs),
(135,99,ls),
(135,120,o),
(123,132,o),
(102,132,cs),
(66,132,ls),
(45,132,o),
(33,120,o),
(33,99,cs)
);
}
);
width = 561;
}
);
},
{
export = 0;
glyphname = K.001;
lastChange = "2023-08-29 13:09:29 +0000";
layers = (
{
layerId = m01;
shapes = (
{
closed = 1;
nodes = (
(130,237,ls),
(145,222,o),
(162,222,o),
(177,237,cs),
(480,541,ls),
(495,556,o),
(495,572,o),
(480,587,cs),
(480,587,ls),
(465,602,o),
(449,602,o),
(434,587,cs),
(130,283,ls),
(115,268,o),
(115,253,o),
(130,237,cs)
);
},
{
closed = 1;
nodes = (
(0,297,l),
(102,297,l),
(102,594,l),
(0,594,l)
);
},
{
closed = 1;
nodes = (
(0,0,l),
(176,0,l),
(176,330,l),
(0,330,l)
);
},
{
closed = 1;
nodes = (
(319,0,l),
(495,0,l),
(495,264,l),
(319,264,l)
);
}
);
width = 600;
}
);
},
{
glyphname = "a-hira";
lastChange = "2023-07-29 05:43:05 +0000";
layers = (
{
layerId = m01;
shapes = (
{
closed = 1;
nodes = (
(318,0,ls),
(337,0,o),
(350,8,o),
(356,26,cs),
(480,370,ls),
(486,388,o),
(499,396,o),
(518,396,cs),
(558,396,ls),
(579,396,o),
(591,384,o),
(591,363,cs),
(591,207,ls),
(591,186,o),
(579,174,o),
(558,174,cs),
(552,174,ls),
(531,174,o),
(519,162,o),
(519,141,cs),
(519,33,ls),
(519,12,o),
(531,0,o),
(552,0,cs),
(660,0,ls),
(681,0,o),
(693,12,o),
(693,33,cs),
(693,429,ls),
(693,450,o),
(681,462,o),
(660,462,cs),
(441,462,ls),
(420,462,o),
(408,474,o),
(408,495,cs),
(408,495,ls),
(408,516,o),
(420,528,o),
(441,528,cs),
(660,528,ls),
(681,528,o),
(693,540,o),
(693,561,cs),
(693,561,ls),
(693,582,o),
(681,594,o),
(660,594,cs),
(441,594,ls),
(420,594,o),
(408,606,o),
(408,627,cs),
(408,627,ls),
(408,648,o),
(396,660,o),
(375,660,cs),
(267,660,ls),
(246,660,o),
(234,648,o),
(234,627,cs),
(234,627,ls),
(234,606,o),
(222,594,o),
(201,594,cs),
(66,594,ls),
(45,594,o),
(33,582,o),
(33,561,cs),
(33,561,ls),
(33,540,o),
(45,528,o),
(66,528,cs),
(201,528,ls),
(222,528,o),
(234,516,o),
(234,495,cs),
(234,495,ls),
(234,474,o),
(222,462,o),
(201,462,cs),
(66,462,ls),
(45,462,o),
(33,450,o),
(33,429,cs),
(33,33,ls),
(33,12,o),
(45,0,o),
(66,0,cs)
);
},
{
closed = 1;
nodes = (
(111,66,o),
(99,78,o),
(99,99,cs),
(99,363,ls),
(99,384,o),
(111,396,o),
(132,396,cs),
(201,396,ls),
(222,396,o),
(234,384,o),
(234,363,cs),
(234,99,ls),
(234,78,o),
(222,66,o),
(201,66,cs),
(132,66,ls)
);
},
{
closed = 1;
nodes = (
(327,139,o),
(300,144,o),
(300,176,cs),
(300,363,ls),
(300,384,o),
(312,396,o),
(333,396,cs),
(380,396,ls),
(404,396,o),
(414,381,o),
(406,358,cs),
(338,169,ls)
);
}
);
width = 726;
}
);
unicode = 12354;
},
{
glyphname = "i-hira";
lastChange = "2023-07-29 05:59:12 +0000";
layers = (
{
layerId = m01;
shapes = (
{
closed = 1;
nodes = (
(288,0,ls),
(309,0,o),
(321,12,o),
(321,33,cs),
(321,33,ls),
(321,54,o),
(309,66,o),
(288,66,cs),
(240,66,ls),
(219,66,o),
(207,78,o),
(207,99,cs),
(207,231,ls),
(207,252,o),
(195,264,o),
(174,264,cs),
(168,264,ls),
(147,264,o),
(135,276,o),
(135,297,cs),
(135,561,ls),
(135,582,o),
(123,594,o),
(102,594,cs),
(66,594,ls),
(45,594,o),
(33,582,o),
(33,561,cs),
(33,33,ls),
(33,12,o),
(45,0,o),
(66,0,cs)
);
},
{
closed = 1;
nodes = (
(660,0,ls),
(681,0,o),
(693,12,o),
(693,33,cs),
(693,495,ls),
(693,516,o),
(681,528,o),
(660,528,cs),
(486,528,ls),
(465,528,o),
(453,516,o),
(453,495,cs),
(453,495,ls),
(453,474,o),
(465,462,o),
(486,462,cs),
(486,462,ls),
(507,462,o),
(519,450,o),
(519,429,cs),
(519,33,ls),
(519,12,o),
(531,0,o),
(552,0,cs)
);
}
);
width = 726;
}
);
unicode = 12356;
},
{
glyphname = "u-hira";
lastChange = "2023-07-29 06:35:25 +0000";
layers = (
{
layerId = m01;
shapes = (
{
closed = 1;
nodes = (
(561,0,ls),
(582,0,o),
(594,12,o),
(594,33,cs),
(594,69,ls),
(594,90,o),
(606,102,o),
(627,102,cs),
(627,102,ls),
(648,102,o),
(660,114,o),
(660,135,cs),
(660,471,ls),
(660,492,o),
(648,504,o),
(627,504,cs),
(33,504,ls),
(12,504,o),
(0,492,o),
(0,471,cs),
(0,471,ls),
(0,450,o),
(12,438,o),
(33,438,cs),
(363,438,ls),
(384,438,o),
(396,426,o),
(396,405,cs),
(396,99,ls),
(396,78,o),
(384,66,o),
(363,66,cs),
(99,66,ls),
(78,66,o),
(66,54,o),
(66,33,cs),
(66,33,ls),
(66,12,o),
(78,0,o),
(99,0,cs)
);
},
{
closed = 1;
nodes = (
(561,546,ls),
(582,546,o),
(594,558,o),
(594,579,cs),
(594,627,ls),
(594,648,o),
(582,660,o),
(561,660,cs),
(99,660,ls),
(78,660,o),
(66,648,o),
(66,627,cs),
(66,606,o),
(78,594,o),
(99,594,cs),
(393,594,ls),
(414,594,o),
(426,585,o),
(426,570,cs),
(426,555,o),
(438,546,o),
(459,546,cs)
);
}
);
width = 660;
}
);
unicode = 12358;
},
{
glyphname = "e-hira";
lastChange = "2023-07-29 06:34:47 +0000";
layers = (
{
layerId = m01;
shapes = (
{
closed = 1;
nodes = (
(258,0,ls),
(276,0,o),
(288,8,o),
(297,23,cs),
(388,181,ls),
(404,209,o),
(429,203,o),
(429,171,cs),
(429,33,ls),
(429,12,o),
(441,0,o),
(462,0,cs),
(660,0,ls),
(681,0,o),
(693,12,o),
(693,33,cs),
(693,69,ls),
(693,90,o),
(681,102,o),
(660,102,cs),
(564,102,ls),
(543,102,o),
(531,114,o),
(531,135,cs),
(531,282,ls),
(531,303,o),
(518,315,o),
(498,315,cs),
(498,315,ls),
(480,315,o),
(476,333,o),
(489,355,cs),
(604,554,ls),
(617,576,o),
(607,594,o),
(581,594,cs),
(443,594,ls),
(422,594,o),
(410,606,o),
(410,627,cs),
(410,648,o),
(398,660,o),
(377,660,cs),
(269,660,ls),
(248,660,o),
(236,648,o),
(236,627,cs),
(236,606,o),
(224,594,o),
(203,594,cs),
(66,594,ls),
(45,594,o),
(33,582,o),
(33,561,cs),
(33,540,o),
(45,528,o),
(66,528,cs),
(342,528,ls),
(368,528,o),
(378,510,o),
(365,488,cs),
(238,269,ls),
(229,254,o),
(217,246,o),
(199,246,cs),
(66,246,ls),
(45,246,o),
(33,234,o),
(33,213,cs),
(33,33,ls),
(33,12,o),
(45,0,o),
(66,0,cs)
);
}
);
width = 726;
}
);
unicode = 12360;
},
{
glyphname = "o-hira";
lastChange = "2023-07-30 13:30:52 +0000";
layers = (
{
layerId = m01;
shapes = (
{
closed = 1;
nodes = (
(414,0,ls),
(435,0,o),
(447,12,o),
(447,33,cs),
(447,327,ls),
(447,348,o),
(459,360,o),
(480,360,cs),
(558,360,ls),
(579,360,o),
(591,348,o),
(591,327,cs),
(591,207,ls),
(591,186,o),
(581,174,o),
(563,174,cs),
(552,174,ls),
(531,174,o),
(519,162,o),
(519,141,cs),
(519,33,ls),
(519,12,o),
(531,0,o),
(552,0,cs),
(660,0,ls),
(681,0,o),
(693,12,o),
(693,33,cs),
(693,393,ls),
(693,414,o),
(681,426,o),
(660,426,cs),
(480,426,ls),
(459,426,o),
(447,438,o),
(447,459,cs),
(447,496,ls),
(447,517,o),
(459,529,o),
(480,529,cs),
(492,529,ls),
(513,529,o),
(525,541,o),
(525,562,cs),
(525,562,ls),
(525,583,o),
(513,595,o),
(492,595,cs),
(408,595,ls),
(387,595,o),
(375,607,o),
(375,627,cs),
(375,627,ls),
(375,648,o),
(363,660,o),
(342,660,cs),
(234,660,ls),
(213,660,o),
(201,648,o),
(201,627,cs),
(201,627,ls),
(201,606,o),
(189,594,o),
(168,594,cs),
(66,594,ls),
(45,594,o),
(33,582,o),
(33,561,cs),
(33,561,ls),
(33,540,o),
(45,528,o),
(66,528,cs),
(168,528,ls),
(189,528,o),
(201,516,o),
(201,495,cs),
(201,459,ls),
(201,438,o),
(189,426,o),
(168,426,cs),
(66,426,ls),
(45,426,o),
(33,414,o),
(33,393,cs),
(33,33,ls),
(33,12,o),
(45,0,o),
(66,0,cs)
);
},
{
closed = 1;
nodes = (
(99,327,ls),
(99,348,o),
(111,360,o),
(132,360,cs),
(168,360,ls),
(189,360,o),
(201,348,o),
(201,327,cs),
(201,115,ls),
(201,94,o),
(189,82,o),
(168,82,cs),
(132,82,ls),
(111,82,o),
(99,94,o),
(99,115,cs)
);
},
{
closed = 1;
nodes = (
(660,492,ls),
(681,492,o),
(693,504,o),
(693,525,cs),
(693,627,ls),
(693,648,o),
(681,660,o),
(660,660,cs),
(594,660,ls),
(573,660,o),
(561,648,o),
(561,627,cs),
(561,525,ls),
(561,504,o),
(573,492,o),
(594,492,cs)
);
}
);
width = 726;
}
);
unicode = 12362;
},
{
glyphname = "ka-hira";
lastChange = "2023-07-29 22:58:33 +0000";
layers = (
{
layerId = m01;
shapes = (
{
closed = 1;
nodes = (
(192,0,ls),
(213,0,o),
(225,12,o),
(225,33,cs),
(225,459,ls),
(225,480,o),
(237,492,o),
(258,492,cs),
(360,492,ls),
(381,492,o),
(393,480,o),
(393,459,cs),
(393,207,ls),
(393,186,o),
(381,174,o),
(360,174,cs),
(354,174,ls),
(333,174,o),
(321,162,o),
(321,141,cs),
(321,33,ls),
(321,12,o),
(333,0,o),
(354,0,cs),
(462,0,ls),
(483,0,o),
(495,12,o),
(495,33,cs),
(495,561,ls),
(495,582,o),
(483,594,o),
(462,594,cs),
(330,594,ls),
(309,594,o),
(297,606,o),
(297,627,cs),
(297,627,ls),
(297,648,o),
(285,660,o),
(264,660,cs),
(156,660,ls),
(135,660,o),
(123,648,o),
(123,627,cs),
(123,627,ls),
(123,606,o),
(111,594,o),
(90,594,cs),
(66,594,ls),
(45,594,o),
(33,582,o),
(33,561,cs),
(33,525,ls),
(33,504,o),
(45,492,o),
(66,492,cs),
(90,492,ls),
(111,492,o),
(123,480,o),
(123,459,cs),
(123,297,ls),
(123,276,o),
(111,264,o),
(90,264,cs),
(66,264,ls),
(45,264,o),
(33,252,o),
(33,231,cs),
(33,33,ls),
(33,12,o),
(45,0,o),
(66,0,cs)
);
},
{
closed = 1;
nodes = (
(660,166,ls),
(681,166,o),
(693,178,o),
(693,199,cs),
(693,627,ls),
(693,648,o),
(681,660,o),
(660,660,cs),
(624,660,ls),
(603,660,o),
(591,648,o),
(591,627,cs),
(591,331,ls),
(591,310,o),
(590,298,o),
(574,298,cs),
(574,298,ls),
(553,298,o),
(551,286,o),
(551,265,cs),
(551,199,ls),
(551,178,o),
(563,166,o),
(584,166,cs)
);
}
);
width = 726;
}
);
unicode = 12363;
},
{
glyphname = "ga-hira";
lastChange = "2023-07-29 22:59:41 +0000";
layers = (
{
layerId = m01;
shapes = (
{
closed = 1;
nodes = (
(192,0,ls),
(213,0,o),
(225,12,o),
(225,33,cs),
(225,459,ls),
(225,480,o),
(237,492,o),
(258,492,cs),
(360,492,ls),
(381,492,o),
(393,480,o),
(393,459,cs),
(393,207,ls),
(393,186,o),
(381,174,o),
(360,174,cs),
(354,174,ls),
(333,174,o),
(321,162,o),
(321,141,cs),
(321,33,ls),
(321,12,o),
(333,0,o),
(354,0,cs),
(462,0,ls),
(483,0,o),
(495,12,o),
(495,33,cs),
(495,561,ls),
(495,582,o),
(483,594,o),
(462,594,cs),
(330,594,ls),
(309,594,o),
(297,606,o),
(297,627,cs),
(297,627,ls),
(297,648,o),
(285,660,o),
(264,660,cs),
(156,660,ls),
(135,660,o),
(123,648,o),
(123,627,cs),
(123,627,ls),
(123,606,o),
(111,594,o),
(90,594,cs),
(66,594,ls),
(45,594,o),
(33,582,o),
(33,561,cs),
(33,525,ls),
(33,504,o),
(45,492,o),
(66,492,cs),
(90,492,ls),
(111,492,o),
(123,480,o),
(123,459,cs),
(123,297,ls),
(123,276,o),
(111,264,o),
(90,264,cs),
(66,264,ls),
(45,264,o),
(33,252,o),
(33,231,cs),
(33,33,ls),
(33,12,o),
(45,0,o),
(66,0,cs)
);
},
{
closed = 1;
nodes = (
(660,166,ls),
(681,166,o),
(693,178,o),
(693,199,cs),
(693,587,ls),
(693,608,o),
(681,620,o),
(660,620,cs),
(624,620,ls),
(603,620,o),
(591,608,o),
(591,587,cs),
(591,331,ls),
(591,310,o),
(590,298,o),
(574,298,cs),
(574,298,ls),
(553,298,o),
(551,286,o),
(551,265,cs),
(551,199,ls),
(551,178,o),
(563,166,o),
(584,166,cs)
);
},
{
alignment = -1;
pos = (487,-66);
ref = "voicedcomb-kana";
}
);
width = 773;
}
);
unicode = 12364;
},
{
glyphname = "ki-hira";
lastChange = "2023-07-29 22:55:47 +0000";
layers = (
{
layerId = m01;
shapes = (
{
closed = 1;
nodes = (
(33,507,o),
(45,495,o),
(66,495,cs),
(312,495,ls),
(333,495,o),
(345,483,o),
(345,462,cs),
(345,426,ls),
(345,405,o),
(333,393,o),
(312,393,cs),
(66,393,ls),
(45,393,o),
(33,381,o),
(33,360,cs),
(33,324,ls),
(33,303,o),
(45,291,o),
(66,291,cs),
(312,291,ls),
(333,291,o),
(345,279,o),
(345,258,cs),
(345,222,ls),
(345,201,o),
(357,189,o),
(378,189,cs),
(558,189,ls),
(579,189,o),
(591,201,o),
(591,222,cs),
(591,258,ls),
(591,279,o),
(603,291,o),
(624,291,cs),
(660,291,ls),
(681,291,o),
(693,303,o),
(693,324,cs),
(693,360,ls),
(693,381,o),
(681,393,o),
(660,393,cs),
(624,393,ls),
(603,393,o),
(591,405,o),
(591,426,cs),
(591,462,ls),
(591,483,o),
(603,495,o),
(624,495,cs),
(660,495,ls),
(681,495,o),
(693,507,o),
(693,528,cs),
(693,549,o),
(681,561,o),
(660,561,cs),
(552,561,ls),
(531,561,o),
(519,573,o),
(519,594,cs),
(519,627,ls),
(519,648,o),
(507,660,o),
(486,660,cs),
(378,660,ls),
(357,660,o),
(345,648,o),
(345,627,cs),
(345,594,ls),
(345,573,o),
(333,561,o),
(312,561,cs),
(66,561,ls),
(45,561,o),
(33,549,o),
(33,528,cs)
);
},
{
closed = 1;
nodes = (
(66,99,ls),
(66,78,o),
(78,66,o),
(99,66,cs),
(99,66,ls),
(120,66,o),
(132,54,o),
(132,33,cs),
(132,33,ls),
(132,12,o),
(144,0,o),
(165,0,cs),
(594,0,ls),
(615,0,o),
(627,12,o),
(627,33,cs),
(627,54,o),
(615,66,o),
(594,66,cs),
(273,66,ls),
(252,66,o),
(240,78,o),
(240,99,cs),
(240,161,ls),
(240,182,o),
(228,194,o),
(207,194,cs),
(99,194,ls),
(78,194,o),
(66,182,o),
(66,161,cs)
);
}
);
width = 726;
}
);
unicode = 12365;
},
{
glyphname = "ke-hira";
lastChange = "2023-07-30 13:52:42 +0000";
layers = (
{
layerId = m01;
shapes = (
{
closed = 1;
nodes = (
(33,33,ls),
(33,12,o),
(45,0,o),
(66,0,cs),
(174,0,ls),
(195,0,o),
(207,12,o),
(207,33,cs),
(207,141,ls),
(207,162,o),
(195,174,o),
(174,174,cs),
(168,174,ls),
(147,174,o),
(135,186,o),
(135,207,cs),
(135,561,ls),
(135,582,o),
(123,594,o),
(102,594,cs),
(66,594,ls),
(45,594,o),
(33,582,o),
(33,561,cs)
);
},
{
closed = 1;
nodes = (
(382,537,ls),
(382,516,o),
(370,504,o),
(349,504,cs),
(283,504,ls),
(262,504,o),
(250,492,o),
(250,471,cs),
(250,471,ls),
(250,450,o),
(262,438,o),
(283,438,cs),
(349,438,ls),
(370,438,o),
(382,426,o),
(382,405,cs),
(382,99,ls),
(382,78,o),
(370,66,o),
(349,66,cs),
(283,66,ls),
(262,66,o),
(250,54,o),
(250,33,cs),
(250,33,ls),
(250,12,o),
(262,0,o),
(283,0,cs),
(529,0,ls),
(550,0,o),
(562,12,o),
(562,33,cs),
(562,69,ls),
(562,90,o),
(574,102,o),
(595,102,cs),
(595,102,ls),
(616,102,o),
(628,114,o),
(628,135,cs),
(628,405,ls),
(628,426,o),
(640,438,o),
(660,438,cs),
(660,438,ls),
(681,438,o),
(693,450,o),
(693,471,cs),
(693,471,ls),
(693,492,o),
(681,504,o),
(660,504,cs),
(589,504,ls),
(568,504,o),
(556,516,o),
(556,537,cs),
(556,627,ls),
(556,648,o),
(544,660,o),
(523,660,cs),
(415,660,ls),
(394,660,o),
(382,648,o),
(382,627,cs)
);
}
);
width = 726;
}
);
unicode = 12369;
},
{
glyphname = "ta-hira";
lastChange = "2023-08-29 12:52:46 +0000";
layers = (
{
background = {
shapes = (
{
closed = 1;
nodes = (
(174,648,o),
(162,660,o),
(141,660,cs),
(105,660,ls),
(84,660,o),
(72,648,o),
(72,627,cs),
(72,207,ls),
(72,186,o),
(60,174,o),
(39,174,cs),
(33,174,ls),
(12,174,o),
(0,162,o),
(0,141,cs),
(0,33,ls),
(0,12,o),
(12,0,o),
(33,0,cs),
(141,0,ls),
(162,0,o),
(174,12,o),
(174,33,cs),
(174,627,ls)
);
},
{
closed = 1;
nodes = (
(0,528,l),
(259,528,l),
(259,594,l),
(0,594,l)
);
}
);
};
layerId = m01;
width = 660;
}
);
unicode = 12383;
},
{
glyphname = "a-kata";
lastChange = "2023-07-28 11:58:30 +0000";
layers = (
{
layerId = m01;
shapes = (
{
closed = 1;
nodes = (
(660,198,ls),
(681,198,o),
(693,210,o),
(693,231,cs),
(693,459,ls),
(693,480,o),
(681,492,o),
(660,492,cs),
(624,492,ls),
(603,492,o),
(591,504,o),
(591,525,cs),
(591,561,ls),
(591,582,o),
(579,594,o),
(558,594,cs),
(66,594,ls),
(45,594,o),
(33,582,o),
(33,561,cs),
(33,561,ls),
(33,540,o),
(45,528,o),
(66,528,cs),
(414,528,ls),
(435,528,o),
(447,516,o),
(447,495,cs),
(447,297,ls),
(447,276,o),
(435,264,o),
(414,264,cs),
(414,264,ls),
(393,264,o),
(381,252,o),
(381,231,cs),
(381,231,ls),
(381,210,o),
(393,198,o),
(414,198,cs)
);
},
{
closed = 1;
nodes = (
(246,0,ls),
(267,0,o),
(279,12,o),
(279,33,cs),
(279,429,ls),
(279,450,o),
(267,462,o),
(246,462,cs),
(246,462,ls),
(225,462,o),
(213,450,o),
(213,429,cs),
(213,297,ls),
(213,276,o),
(201,264,o),
(180,264,cs),
(66,264,ls),
(45,264,o),
(33,252,o),
(33,231,cs),
(33,33,ls),
(33,12,o),
(45,0,o),
(66,0,cs)
);
}
);
width = 726;
}
);
unicode = 12450;
},
{
glyphname = "i-kata";
lastChange = "2023-08-01 01:36:51 +0000";
layers = (
{
layerId = m01;
shapes = (
{
closed = 1;
nodes = (
(519,0,ls),
(540,0,o),
(552,12,o),
(552,33,cs),
(552,341,ls),
(552,360,o),
(561,371,o),
(579,378,cs),
(667,410,ls),
(685,416,o),
(693,429,o),
(693,448,cs),
(693,561,ls),
(693,582,o),
(681,594,o),
(660,594,cs),
(552,594,ls),
(531,594,o),
(519,582,o),
(519,561,cs),
(519,455,ls),
(519,436,o),
(511,423,o),
(493,417,cs),
(56,258,ls),
(36,251,o),
(29,237,o),
(36,216,cs),
(36,216,ls),
(43,195,o),
(58,189,o),
(78,196,cs),
(268,265,ls),
(291,273,o),
(306,263,o),
(306,239,cs),
(306,33,ls),
(306,12,o),
(318,0,o),
(339,0,cs)
);
}
);
width = 726;
}
);
unicode = 12452;
},
{
glyphname = "u-kata";
lastChange = "2023-07-23 13:25:07 +0000";
layers = (
{
layerId = m01;
shapes = (
{
closed = 1;
nodes = (
(594,0,ls),
(615,0,o),
(627,12,o),
(627,33,cs),
(627,33,ls),
(627,54,o),
(639,66,o),
(660,66,cs),
(660,66,ls),
(681,66,o),
(693,78,o),
(693,99,cs),
(693,561,ls),
(693,582,o),
(681,594,o),
(660,594,cs),
(483,594,ls),
(462,594,o),
(450,606,o),
(450,627,cs),
(450,627,ls),
(450,648,o),
(438,660,o),
(417,660,cs),
(309,660,ls),
(288,660,o),
(276,648,o),
(276,627,cs),
(276,627,ls),
(276,606,o),
(264,594,o),
(243,594,cs),
(132,594,ls),
(111,594,o),
(99,582,o),
(99,561,cs),
(99,561,ls),
(99,540,o),
(87,528,o),
(66,528,cs),
(66,528,ls),
(45,528,o),
(33,516,o),
(33,495,cs),
(33,363,ls),
(33,342,o),
(45,330,o),
(66,330,cs),
(174,330,ls),
(195,330,o),
(207,342,o),
(207,363,cs),
(207,495,ls),
(207,516,o),
(219,528,o),
(240,528,cs),
(414,528,ls),
(435,528,o),
(447,516,o),
(447,495,cs),
(447,99,ls),
(447,78,o),
(435,66,o),
(414,66,cs),
(240,66,ls),
(219,66,o),
(207,54,o),
(207,33,cs),
(207,33,ls),
(207,12,o),
(219,0,o),
(240,0,cs)
);
}
);
width = 726;
}
);
unicode = 12454;
},
{
glyphname = "e-kata";
lastChange = "2023-07-21 07:26:05 +0000";
layers = (
{
layerId = m01;
shapes = (
{
closed = 1;
nodes = (
(660,0,ls),
(681,0,o),
(693,12,o),
(693,33,cs),
(693,69,ls),
(693,90,o),
(681,102,o),
(660,102,cs),
(519,102,ls),
(498,102,o),
(486,114,o),
(486,135,cs),
(486,495,ls),
(486,516,o),
(498,528,o),
(519,528,cs),
(660,528,ls),
(681,528,o),
(693,540,o),
(693,561,cs),
(693,561,ls),
(693,582,o),
(681,594,o),
(660,594,cs),
(66,594,ls),
(45,594,o),
(33,582,o),
(33,561,cs),
(33,525,ls),
(33,504,o),
(45,492,o),
(66,492,cs),
(207,492,ls),
(228,492,o),
(240,480,o),
(240,459,cs),
(240,99,ls),
(240,78,o),
(228,66,o),
(207,66,cs),
(66,66,ls),
(45,66,o),
(33,54,o),
(33,33,cs),
(33,33,ls),
(33,12,o),
(45,0,o),
(66,0,cs)
);
}
);
width = 726;
}
);
unicode = 12456;
},
{
glyphname = "o-kata";
lastChange = "2023-07-21 07:26:05 +0000";
layers = (
{
layerId = m01;
shapes = (
{
closed = 1;
nodes = (
(179,0,ls),
(198,0,o),
(211,8,o),
(217,26,cs),
(343,375,ls),
(354,405,o),
(381,400,o),
(381,368,cs),
(381,33,ls),
(381,12,o),
(393,0,o),
(414,0,cs),
(594,0,ls),
(615,0,o),
(627,12,o),
(627,33,cs),
(627,495,ls),
(627,516,o),
(639,528,o),
(660,528,cs),
(660,528,ls),
(681,528,o),
(693,540,o),
(693,561,cs),
(693,561,ls),
(693,582,o),
(681,594,o),
(660,594,cs),
(588,594,ls),
(567,594,o),
(555,606,o),
(555,627,cs),
(555,627,ls),
(555,648,o),
(543,660,o),
(522,660,cs),
(414,660,ls),
(393,660,o),
(381,648,o),
(381,627,cs),
(381,627,ls),
(381,606,o),
(369,594,o),
(348,594,cs),
(66,594,ls),
(45,594,o),
(33,582,o),
(33,561,cs),
(33,561,ls),
(33,540,o),
(45,528,o),
(66,528,cs),
(289,528,ls),
(313,528,o),
(323,513,o),
(315,490,cs),
(210,200,ls),
(204,182,o),
(191,174,o),
(172,174,cs),
(66,174,ls),
(45,174,o),
(33,162,o),
(33,141,cs),
(33,33,ls),
(33,12,o),
(45,0,o),
(66,0,cs)
);
}
);
width = 726;
}
);
unicode = 12458;
},
{
glyphname = "ka-kata";
lastChange = "2023-07-21 07:26:05 +0000";
layers = (
{
layerId = m01;
shapes = (
{
closed = 1;
nodes = (
(330,0,ls),
(351,0,o),
(363,12,o),
(363,33,cs),
(363,459,ls),
(363,480,o),
(375,492,o),
(396,492,cs),
(558,492,ls),
(579,492,o),
(591,480,o),
(591,459,cs),
(591,207,ls),
(591,186,o),
(579,174,o),
(558,174,cs),
(552,174,ls),
(531,174,o),
(519,162,o),
(519,141,cs),
(519,33,ls),
(519,12,o),
(531,0,o),
(552,0,cs),
(660,0,ls),
(681,0,o),
(693,12,o),
(693,33,cs),
(693,561,ls),
(693,582,o),
(681,594,o),
(660,594,cs),
(396,594,ls),
(375,594,o),
(363,606,o),
(363,627,cs),
(363,627,ls),
(363,648,o),
(351,660,o),
(330,660,cs),
(222,660,ls),
(201,660,o),
(189,648,o),
(189,627,cs),
(189,627,ls),
(189,606,o),
(177,594,o),
(156,594,cs),
(66,594,ls),
(45,594,o),
(33,582,o),
(33,561,cs),
(33,525,ls),
(33,504,o),
(45,492,o),
(66,492,cs),
(156,492,ls),
(177,492,o),
(189,480,o),
(189,459,cs),
(189,297,ls),
(189,276,o),
(177,264,o),
(156,264,cs),
(132,264,ls),
(111,264,o),
(99,252,o),
(99,231,cs),
(99,33,ls),
(99,12,o),
(111,0,o),
(132,0,cs)
);
}
);
width = 726;
}
);
unicode = 12459;
},
{
glyphname = "ki-kata";
lastChange = "2023-07-29 05:02:23 +0000";
layers = (
{
layerId = m01;
shapes = (
{
closed = 1;
nodes = (
(489,0,ls),
(510,0,o),
(522,12,o),
(522,33,cs),
(522,72,ls),
(522,93,o),
(534,105,o),
(555,105,cs),
(660,105,ls),
(681,105,o),
(693,117,o),
(693,138,cs),
(693,174,ls),
(693,195,o),
(681,207,o),
(660,207,cs),
(555,207,ls),
(534,207,o),
(522,219,o),
(522,240,cs),
(522,462,ls),
(522,483,o),
(534,495,o),
(555,495,cs),
(660,495,ls),
(681,495,o),
(693,507,o),
(693,528,cs),
(693,528,ls),
(693,549,o),
(681,561,o),
(660,561,cs),
(483,561,ls),
(462,561,o),
(450,573,o),
(450,594,cs),
(450,627,ls),
(450,648,o),
(438,660,o),
(417,660,cs),
(309,660,ls),
(288,660,o),
(276,648,o),
(276,627,cs),
(276,594,ls),
(276,573,o),
(264,561,o),
(243,561,cs),
(66,561,ls),
(45,561,o),
(33,549,o),
(33,528,cs),
(33,528,ls),
(33,507,o),
(45,495,o),
(66,495,cs),
(243,495,ls),
(264,495,o),
(276,483,o),
(276,462,cs),
(276,240,ls),
(276,219,o),
(264,207,o),
(243,207,cs),
(66,207,ls),
(45,207,o),
(33,195,o),
(33,174,cs),
(33,138,ls),
(33,117,o),
(45,105,o),
(66,105,cs),
(243,105,ls),
(264,105,o),
(276,93,o),
(276,72,cs),
(276,33,ls),
(276,12,o),
(288,0,o),
(309,0,cs)
);
}
);
width = 726;
}
);
unicode = 12461;
},
{
glyphname = "ku-kata";
lastChange = "2023-07-21 07:26:05 +0000";
layers = (
{
layerId = m01;
shapes = (
{
closed = 1;
nodes = (
(443,0,ls),
(461,0,o),
(473,8,o),
(482,23,cs),
(648,311,ls),
(656,324,o),
(659,337,o),
(659,352,cs),
(659,459,ls),
(659,480,o),
(647,492,o),
(626,492,cs),
(590,492,ls),
(569,492,o),
(557,504,o),
(557,525,cs),
(557,561,ls),
(557,582,o),
(545,594,o),
(524,594,cs),
(216,594,ls),
(198,594,o),
(186,586,o),
(177,571,cs),
(37,330,l),
(29,314,o),
(34,295,o),
(50,286,cs),
(65,277,o),
(85,282,o),
(95,297,c),
(194,469,ls),
(203,484,o),
(215,492,o),
(233,492,cs),
(380,492,ls),
(401,492,o),
(413,480,o),
(413,459,cs),
(413,352,ls),
(413,337,o),
(410,324,o),
(402,311,cs),
(246,40,ls),
(233,18,o),
(243,0,o),
(269,0,cs)
);
}
);
width = 692;
}
);
unicode = 12463;
},
{
glyphname = "ke-kata";
lastChange = "2023-07-31 11:16:02 +0000";
layers = (
{
layerId = m01;
shapes = (
{
closed = 1;
nodes = (
(528,0,ls),
(549,0,o),
(561,12,o),
(561,33,cs),
(561,33,ls),
(561,54,o),
(573,66,o),
(594,66,cs),
(594,66,ls),
(615,66,o),
(627,78,o),
(627,99,cs),
(627,495,ls),
(627,516,o),
(639,528,o),
(660,528,cs),
(660,528,ls),
(681,528,o),
(693,540,o),
(693,561,cs),
(693,561,ls),
(693,582,o),
(681,594,o),
(660,594,cs),
(240,594,ls),
(219,594,o),
(207,606,o),
(207,627,cs),
(207,627,ls),
(207,648,o),
(195,660,o),
(174,660,cs),
(174,660,ls),
(153,660,o),
(141,648,o),
(141,627,cs),
(141,561,ls),
(141,540,o),
(129,528,o),
(108,528,cs),
(66,528,ls),
(45,528,o),
(33,516,o),
(33,495,cs),
(33,327,ls),
(33,306,o),
(45,294,o),
(66,294,cs),
(174,294,ls),
(195,294,o),
(207,306,o),
(207,327,cs),
(207,495,ls),
(207,516,o),
(219,528,o),
(240,528,cs),
(348,528,ls),
(369,528,o),
(381,516,o),
(381,495,cs),
(381,99,ls),
(381,78,o),
(369,66,o),
(348,66,cs),
(264,66,ls),
(243,66,o),
(231,54,o),
(231,33,cs),
(231,33,ls),
(231,12,o),
(243,0,o),
(264,0,cs)
);
}
);
width = 726;
}
);
unicode = 12465;
},
{
glyphname = "ko-kata";
lastChange = "2023-07-28 11:58:42 +0000";
layers = (
{
layerId = m01;
shapes = (
{
closed = 1;
nodes = (
(594,0,ls),
(615,0,o),
(627,12,o),
(627,33,cs),
(627,561,ls),
(627,582,o),
(615,594,o),
(594,594,cs),
(66,594,ls),
(45,594,o),
(33,582,o),
(33,561,cs),
(33,561,ls),
(33,540,o),
(45,528,o),
(66,528,cs),
(492,528,ls),
(513,528,o),
(525,516,o),
(525,495,cs),
(525,279,ls),
(525,258,o),
(513,246,o),
(492,246,cs),
(414,246,ls),
(393,246,o),
(381,234,o),
(381,213,cs),
(381,99,ls),
(381,78,o),
(369,66,o),
(348,66,cs),
(66,66,ls),
(45,66,o),
(33,54,o),
(33,33,cs),
(33,33,ls),
(33,12,o),
(45,0,o),
(66,0,cs)
);
}
);
width = 660;
}
);
unicode = 12467;
},
{
glyphname = "sa-kata";
lastChange = "2023-07-21 07:26:05 +0000";
layers = (
{
layerId = m01;
shapes = (
{
closed = 1;
nodes = (
(528,0,ls),
(549,0,o),
(561,12,o),
(561,33,cs),
(561,33,ls),
(561,54,o),
(573,66,o),
(594,66,cs),
(594,66,ls),
(615,66,o),
(627,78,o),
(627,99,cs),
(627,429,ls),
(627,450,o),
(639,462,o),
(660,462,cs),
(660,462,ls),
(681,462,o),
(693,474,o),
(693,495,cs),
(693,495,ls),
(693,516,o),
(681,528,o),
(660,528,cs),
(594,528,ls),
(573,528,o),
(561,540,o),
(561,561,cs),
(561,627,ls),
(561,648,o),
(549,660,o),
(528,660,cs),
(414,660,ls),
(393,660,o),
(381,648,o),
(381,627,cs),
(381,561,ls),
(381,540,o),
(369,528,o),
(348,528,cs),
(270,528,ls),
(249,528,o),
(237,540,o),
(237,561,cs),
(237,627,ls),
(237,648,o),
(225,660,o),
(204,660,cs),
(168,660,ls),
(147,660,o),
(135,648,o),
(135,627,cs),
(135,561,ls),
(135,540,o),
(123,528,o),
(102,528,cs),
(66,528,ls),
(45,528,o),
(33,516,o),
(33,495,cs),
(33,495,ls),
(33,474,o),
(45,462,o),
(66,462,cs),
(102,462,ls),
(123,462,o),
(135,450,o),
(135,429,cs),
(135,363,ls),
(135,342,o),
(147,330,o),
(168,330,cs),
(204,330,ls),
(225,330,o),
(237,342,o),
(237,363,cs),
(237,429,ls),
(237,450,o),
(249,462,o),
(270,462,cs),
(348,462,ls),
(369,462,o),
(381,450,o),
(381,429,cs),
(381,99,ls),
(381,78,o),
(369,66,o),
(348,66,cs),
(168,66,ls),
(147,66,o),
(135,54,o),
(135,33,cs),
(135,33,ls),
(135,12,o),
(147,0,o),
(168,0,cs)
);
}
);
width = 726;
}
);
unicode = 12469;
},
{
glyphname = "si-kata";
lastChange = "2023-07-26 15:51:13 +0000";
layers = (
{
layerId = m01;
shapes = (
{
closed = 1;
nodes = (
(594,0,ls),
(615,0,o),
(627,12,o),
(627,33,cs),
(627,69,ls),
(627,90,o),
(639,102,o),
(660,102,cs),
(660,102,ls),
(681,102,o),
(693,114,o),
(693,135,cs),
(693,561,ls),
(693,582,o),
(681,594,o),
(660,594,cs),
(480,594,ls),
(459,594,o),
(447,582,o),
(447,561,cs),
(447,99,ls),
(447,78,o),
(435,66,o),
(414,66,cs),
(66,66,ls),
(45,66,o),
(33,54,o),
(33,33,cs),
(33,33,ls),
(33,12,o),
(45,0,o),
(66,0,cs)
);
},
{
closed = 1;
nodes = (
(246,323,ls),
(267,323,o),
(279,335,o),
(279,356,cs),
(279,392,ls),
(279,413,o),
(267,425,o),
(246,425,cs),
(66,425,ls),
(45,425,o),
(33,413,o),
(33,392,cs),
(33,356,ls),
(33,335,o),
(45,323,o),
(66,323,cs)
);
},
{
closed = 1;
nodes = (
(246,492,ls),
(267,492,o),
(279,504,o),
(279,525,cs),
(279,561,ls),
(279,582,o),
(267,594,o),
(246,594,cs),
(66,594,ls),
(45,594,o),
(33,582,o),
(33,561,cs),
(33,525,ls),
(33,504,o),
(45,492,o),
(66,492,cs)
);
}
);
width = 726;
}
);
unicode = 12471;
},
{
glyphname = "su-kata";
lastChange = "2023-07-23 13:26:34 +0000";
layers = (
{
layerId = m01;
shapes = (
{
closed = 1;
nodes = (
(258,0,ls),
(276,0,o),
(288,8,o),
(297,23,cs),
(364,139,ls),
(376,160,o),
(394,161,o),
(410,145,cs),
(538,17,ls),
(550,5,o),
(562,0,o),
(579,0,cs),
(660,0,ls),
(681,0,o),
(693,12,o),
(693,33,cs),
(693,75,ls),
(693,96,o),
(681,108,o),
(660,108,cs),
(615,108,ls),
(598,108,o),
(586,113,o),
(574,125,cs),
(457,242,ls),
(443,256,o),
(441,271,o),
(451,288,cs),
(604,554,ls),
(617,576,o),
(607,594,o),
(581,594,cs),
(66,594,ls),
(45,594,o),
(33,582,o),
(33,561,cs),
(33,561,ls),
(33,540,o),
(45,528,o),
(66,528,cs),
(342,528,ls),
(368,528,o),
(378,510,o),
(365,488,cs),
(238,269,ls),
(229,254,o),
(217,246,o),
(199,246,cs),
(66,246,ls),
(45,246,o),
(33,234,o),
(33,213,cs),
(33,33,ls),
(33,12,o),
(45,0,o),
(66,0,cs)
);
}
);
width = 726;
}
);
unicode = 12473;
},
{
glyphname = "se-kata";
lastChange = "2023-07-21 07:26:05 +0000";
layers = (
{
layerId = m01;
shapes = (
{
closed = 1;
nodes = (
(660,0,ls),
(681,0,o),
(693,12,o),
(693,33,cs),
(693,33,ls),
(693,54,o),
(681,66,o),
(660,66,cs),
(348,66,ls),
(327,66,o),
(315,78,o),
(315,99,cs),
(315,429,ls),
(315,450,o),
(327,462,o),
(348,462,cs),
(594,462,ls),
(615,462,o),
(627,450,o),
(627,429,cs),
(627,393,ls),
(627,372,o),
(615,360,o),
(594,360,cs),
(496,360,ls),
(472,360,o),
(462,345,o),
(470,322,cs),
(509,212,ls),
(515,194,o),
(528,186,o),
(547,186,cs),
(660,186,ls),
(681,186,o),
(693,198,o),
(693,219,cs),
(693,495,ls),
(693,516,o),
(681,528,o),
(660,528,cs),
(348,528,ls),
(327,528,o),
(315,540,o),
(315,561,cs),
(315,627,ls),
(315,648,o),
(303,660,o),
(282,660,cs),
(168,660,ls),
(147,660,o),
(135,648,o),
(135,627,cs),
(135,561,ls),
(135,540,o),
(123,528,o),
(102,528,cs),
(66,528,ls),
(45,528,o),
(33,516,o),
(33,495,cs),
(33,495,ls),
(33,474,o),
(45,462,o),
(66,462,cs),
(102,462,ls),
(123,462,o),
(135,450,o),
(135,429,cs),
(135,135,ls),
(135,114,o),
(147,102,o),
(168,102,cs),
(168,102,ls),
(189,102,o),
(201,90,o),
(201,69,cs),
(201,33,ls),
(201,12,o),
(213,0,o),
(234,0,cs)
);
}
);
width = 726;
}
);
unicode = 12475;
},
{
glyphname = "so-kata";
lastChange = "2023-07-21 07:26:05 +0000";
layers = (
{
layerId = m01;
shapes = (
{
closed = 1;
nodes = (
(464,0,ls),
(482,0,o),
(494,8,o),
(503,23,cs),
(671,313,ls),
(679,326,o),
(682,339,o),
(682,354,cs),
(682,459,ls),
(682,480,o),
(670,492,o),
(649,492,cs),
(613,492,ls),
(592,492,o),
(580,504,o),
(580,525,cs),
(580,561,ls),
(580,582,o),
(568,594,o),
(547,594,cs),
(468,594,ls),
(447,594,o),
(435,582,o),
(435,561,cs),
(435,354,ls),
(435,339,o),
(432,326,o),
(424,313,cs),
(295,89,ls),
(286,74,o),
(274,66,o),
(256,66,cs),
(115,66,ls),
(94,66,o),
(82,54,o),
(82,33,cs),
(82,33,ls),
(82,12,o),
(94,0,o),
(115,0,cs)
);
},
{
closed = 1;
nodes = (
(250,334,ls),
(274,334,o),
(284,349,o),
(276,372,cs),
(206,567,ls),
(200,585,o),
(188,594,o),
(169,594,cs),
(62,594,ls),
(38,594,o),
(28,579,o),
(36,556,cs),
(106,360,ls),
(112,342,o),
(125,334,o),
(144,334,cs)
);
}
);
width = 715;
}
);
unicode = 12477;
},
{
glyphname = "ta-kata";
lastChange = "2023-07-23 13:26:52 +0000";
layers = (
{
layerId = m01;
shapes = (
{
closed = 1;
nodes = (
(442,0,ls),
(460,0,o),
(472,8,o),
(481,23,cs),
(648,311,ls),
(656,324,o),
(659,337,o),
(659,352,cs),
(659,459,ls),
(659,480,o),
(647,492,o),
(626,492,cs),
(590,492,ls),
(569,492,o),
(557,504,o),
(557,525,cs),
(557,561,ls),
(557,582,o),
(545,594,o),
(524,594,cs),
(215,594,ls),
(197,594,o),
(185,586,o),
(176,571,cs),
(37,330,ls),
(29,314,o),
(34,295,o),
(50,286,cs),
(65,277,o),
(85,282,o),
(94,297,cs),
(194,469,ls),
(203,484,o),
(215,492,o),
(233,492,cs),
(380,492,ls),
(401,492,o),
(413,480,o),
(413,459,cs),
(413,352,ls),
(413,337,o),
(410,324,o),
(402,311,cs),
(397,302,ls),
(386,284,o),
(369,278,o),
(351,289,cs),
(212,370,ls),
(197,378,o),
(177,373,o),
(168,357,cs),
(159,342,o),
(164,322,o),
(179,313,cs),
(318,233,ls),
(336,222,o),
(341,205,o),
(330,187,cs),
(245,40,ls),
(232,18,o),
(242,0,o),
(268,0,cs)
);
}
);
width = 692;
}
);
unicode = 12479;
},
{
glyphname = "ti-kata";
lastChange = "2023-07-21 07:26:05 +0000";
layers = (
{
layerId = m01;
shapes = (
{
closed = 1;
nodes = (
(426,0,ls),
(447,0,o),
(459,12,o),
(459,33,cs),
(459,69,ls),
(459,90,o),
(471,102,o),
(492,102,cs),
(492,102,ls),
(513,102,o),
(525,114,o),
(525,135,cs),
(525,303,ls),
(525,324,o),
(537,336,o),
(558,336,cs),
(660,336,ls),
(681,336,o),
(693,348,o),
(693,369,cs),
(693,369,ls),
(693,390,o),
(681,402,o),
(660,402,cs),
(558,402,ls),
(537,402,o),
(525,414,o),
(525,435,cs),
(525,447,ls),
(525,468,o),
(537,480,o),
(558,480,cs),
(660,480,ls),
(681,480,o),
(693,492,o),
(693,513,cs),
(693,561,ls),
(693,582,o),
(681,594,o),
(660,594,cs),
(492,594,ls),
(471,594,o),
(459,585,o),
(459,570,cs),
(459,570,ls),
(459,555,o),
(447,546,o),
(426,546,cs),
(66,546,ls),
(45,546,o),
(33,534,o),
(33,513,cs),
(33,513,ls),
(33,492,o),
(45,480,o),
(66,480,cs),
(246,480,ls),
(267,480,o),
(279,468,o),
(279,447,cs),
(279,435,ls),
(279,414,o),
(267,402,o),
(246,402,cs),
(66,402,ls),
(45,402,o),
(33,390,o),
(33,369,cs),
(33,369,ls),
(33,348,o),
(45,336,o),
(66,336,cs),
(246,336,ls),
(267,336,o),
(279,324,o),
(279,303,cs),
(279,99,ls),
(279,78,o),
(267,66,o),
(246,66,cs),
(66,66,ls),
(45,66,o),
(33,54,o),
(33,33,cs),
(33,33,ls),
(33,12,o),
(45,0,o),
(66,0,cs)
);
}
);
width = 726;
}
);
unicode = 12481;
},
{
glyphname = "tu-kata";
lastChange = "2023-07-26 15:57:06 +0000";
layers = (
{
layerId = m01;
shapes = (
{
closed = 1;
nodes = (
(660,0,ls),
(681,0,o),
(693,12,o),
(693,33,cs),
(693,386,ls),
(693,407,o),
(681,419,o),
(660,419,cs),
(660,419,ls),
(639,419,o),
(627,431,o),
(627,452,cs),
(627,560,ls),
(627,581,o),
(615,593,o),
(594,593,cs),
(480,593,ls),
(459,593,o),
(447,581,o),
(447,560,cs),
(447,99,ls),
(447,78,o),
(435,66,o),
(414,66,cs),
(198,66,ls),
(177,66,o),
(165,54,o),
(165,33,cs),
(165,33,ls),
(165,12,o),
(177,0,o),
(198,0,cs)
);
},
{
closed = 1;
nodes = (
(102,329,ls),
(123,329,o),
(135,340,o),
(135,362,cs),
(136,561,ls),
(136,583,o),
(124,594,o),
(103,594,cs),
(67,594,ls),
(46,594,o),
(34,583,o),
(34,561,cs),
(33,362,ls),
(33,340,o),
(45,329,o),
(66,329,cs)
);
},
{
closed = 1;
nodes = (
(270,329,ls),
(291,329,o),
(303,340,o),
(303,362,cs),
(304,561,ls),
(304,583,o),
(292,594,o),
(271,594,cs),
(235,594,ls),
(214,594,o),
(202,583,o),
(202,561,cs),
(201,362,ls),
(201,340,o),
(213,329,o),
(234,329,cs)
);
}
);
width = 726;
}
);
unicode = 12484;
},
{
glyphname = "te-kata";
lastChange = "2023-07-28 12:18:59 +0000";
layers = (
{
layerId = m01;
shapes = (
{
closed = 1;
nodes = (
(426,0,ls),
(447,0,o),
(459,12,o),
(459,33,cs),
(459,69,ls),
(459,90,o),
(471,102,o),
(492,102,cs),
(492,102,ls),
(513,102,o),
(525,114,o),
(525,135,cs),
(525,339,ls),
(525,360,o),
(537,372,o),
(558,372,cs),
(660,372,ls),
(681,372,o),
(693,384,o),
(693,405,cs),
(693,405,ls),
(693,426,o),
(681,438,o),
(660,438,cs),
(66,438,ls),
(45,438,o),
(33,426,o),
(33,405,cs),
(33,405,ls),
(33,384,o),
(45,372,o),
(66,372,cs),
(246,372,ls),
(267,372,o),
(279,360,o),
(279,339,cs),
(279,99,ls),
(279,78,o),
(267,66,o),
(246,66,cs),
(66,66,ls),
(45,66,o),
(33,54,o),
(33,33,cs),
(33,33,ls),
(33,12,o),
(45,0,o),
(66,0,cs)
);
},
{
closed = 1;
nodes = (
(660,480,ls),
(681,480,o),
(693,492,o),
(693,513,cs),
(693,561,ls),
(693,582,o),
(681,594,o),
(660,594,cs),
(66,594,ls),
(45,594,o),
(33,582,o),
(33,561,cs),
(33,561,ls),
(33,540,o),
(45,528,o),
(66,528,cs),
(426,528,ls),
(447,528,o),
(459,519,o),
(459,504,cs),
(459,504,l),
(459,504,ls),
(459,489,o),
(471,480,o),
(492,480,cs)
);
}
);
width = 726;
}
);
unicode = 12486;
},
{
glyphname = "to-kata";
lastChange = "2023-07-31 11:09:17 +0000";
layers = (
{
layerId = m01;
shapes = (
{
closed = 1;
nodes = (
(246,0,ls),
(267,0,o),
(279,12,o),
(279,33,cs),
(279,231,ls),
(279,252,o),
(291,264,o),
(312,264,cs),
(528,264,ls),
(549,264,o),
(561,276,o),
(561,297,cs),
(561,297,ls),
(561,318,o),
(549,330,o),
(528,330,cs),
(312,330,ls),
(291,330,o),
(279,342,o),
(279,363,cs),
(279,561,ls),
(279,582,o),
(267,594,o),
(246,594,cs),
(132,594,ls),
(111,594,o),
(99,582,o),
(99,561,cs),
(99,405,ls),
(99,384,o),
(87,372,o),
(66,372,cs),
(66,372,ls),
(45,372,o),
(33,360,o),
(33,339,cs),
(33,33,ls),
(33,12,o),
(45,0,o),
(66,0,cs)
);
}
);
width = 594;
}
);
unicode = 12488;
},
{
glyphname = "na-kata";
lastChange = "2023-07-23 13:23:48 +0000";
layers = (
{
layerId = m01;
shapes = (
{
closed = 1;
nodes = (
(453,0,ls),
(474,0,o),
(486,12,o),
(486,33,cs),
(486,69,ls),
(486,90,o),
(498,102,o),
(519,102,cs),
(519,102,ls),
(540,102,o),
(552,114,o),
(552,135,cs),
(552,387,ls),
(552,408,o),
(564,420,o),
(585,420,cs),
(660,420,ls),
(681,420,o),
(693,432,o),
(693,453,cs),
(693,453,ls),
(693,474,o),
(681,486,o),
(660,486,cs),
(585,486,ls),
(564,486,o),
(552,498,o),
(552,519,cs),
(552,561,ls),
(552,582,o),
(540,594,o),
(519,594,cs),
(339,594,ls),
(318,594,o),
(306,582,o),
(306,561,cs),
(306,519,ls),
(306,498,o),
(294,486,o),
(273,486,cs),
(66,486,ls),
(45,486,o),
(33,474,o),
(33,453,cs),
(33,453,ls),
(33,432,o),
(45,420,o),
(66,420,cs),
(273,420,ls),
(294,420,o),
(306,408,o),
(306,387,cs),
(306,99,ls),
(306,78,o),
(294,66,o),
(273,66,cs),
(132,66,ls),
(111,66,o),
(99,54,o),
(99,33,cs),
(99,33,ls),
(99,12,o),
(111,0,o),
(132,0,cs)
);
}
);
width = 726;
}
);
unicode = 12490;
},
{
glyphname = "ni-kata";
lastChange = "2023-07-21 07:26:05 +0000";
layers = (
{
layerId = m01;
shapes = (
{
closed = 1;
nodes = (
(660,0,ls),
(681,0,o),
(693,12,o),
(693,33,cs),
(693,141,ls),
(693,162,o),
(681,174,o),
(660,174,cs),
(66,174,ls),
(45,174,o),
(33,162,o),
(33,141,cs),
(33,33,ls),
(33,12,o),
(45,0,o),
(66,0,cs)
);
},
{
closed = 1;
nodes = (
(589,480,ls),
(610,480,o),
(622,492,o),
(622,513,cs),
(622,561,ls),
(622,582,o),
(610,594,o),
(589,594,cs),
(139,594,ls),
(118,594,o),
(106,582,o),
(106,561,cs),
(106,561,ls),
(106,540,o),
(118,528,o),
(139,528,cs),
(355,528,ls),
(376,528,o),
(388,519,o),
(388,504,cs),
(388,504,l),
(388,504,ls),
(388,489,o),
(400,480,o),
(421,480,cs)
);
}
);
width = 726;
}
);
unicode = 12491;
},
{
glyphname = "nu-kata";
lastChange = "2023-07-21 07:26:05 +0000";
layers = (
{
layerId = m01;
shapes = (
{
closed = 1;
nodes = (
(259,0,ls),
(277,0,o),
(289,8,o),
(298,23,cs),
(365,139,ls),
(377,159,o),
(395,162,o),
(411,145,cs),
(532,23,ls),
(547,7,o),
(563,8,o),
(578,23,cs),
(604,49,ls),
(619,64,o),
(620,80,o),
(605,95,cs),
(457,243,ls),
(443,257,o),
(441,272,o),
(451,289,cs),
(604,554,ls),
(617,576,o),
(607,594,o),
(581,594,cs),
(66,594,ls),
(45,594,o),
(33,582,o),
(33,561,cs),
(33,561,ls),
(33,540,o),
(45,528,o),
(66,528,cs),
(342,528,ls),
(368,528,o),
(378,510,o),
(365,488,cs),
(328,424,ls),
(316,403,o),
(298,402,o),
(282,418,cs),
(214,486,ls),
(199,501,o),
(183,501,o),
(168,485,cs),
(142,459,ls),
(127,443,o),
(127,428,o),
(142,413,cs),
(235,320,ls),
(249,306,o),
(251,291,o),
(242,274,cs),
(239,269,ls),
(230,253,o),
(218,246,o),
(200,246,cs),
(66,246,ls),
(45,246,o),
(33,234,o),
(33,213,cs),
(33,33,ls),
(33,12,o),
(45,0,o),
(66,0,cs)
);
}
);
width = 649;
}
);
unicode = 12492;
},
{
glyphname = "ne-kata";
lastChange = "2023-07-21 07:26:05 +0000";
layers = (
{
layerId = m01;
shapes = (
{
closed = 1;
nodes = (
(417,0,ls),
(438,0,o),
(450,12,o),
(450,33,cs),
(450,327,ls),
(450,344,o),
(455,356,o),
(467,368,cs),
(610,511,ls),
(622,523,o),
(634,528,o),
(651,528,cs),
(660,528,ls),
(681,528,o),
(693,540,o),
(693,561,cs),
(693,561,ls),
(693,582,o),
(681,594,o),
(660,594,cs),
(483,594,ls),
(462,594,o),
(450,606,o),
(450,627,cs),
(450,627,ls),
(450,648,o),
(438,660,o),
(417,660,cs),
(309,660,ls),
(288,660,o),
(276,648,o),
(276,627,cs),
(276,627,ls),
(276,606,o),
(264,594,o),
(243,594,cs),
(66,594,ls),
(45,594,o),
(33,582,o),
(33,561,cs),
(33,561,ls),
(33,540,o),
(45,528,o),
(66,528,cs),
(477,528,ls),
(506,528,o),
(514,508,o),
(493,487,cs),
(323,317,ls),
(311,305,o),
(299,300,o),
(282,300,cs),
(66,300,ls),
(45,300,o),
(33,288,o),
(33,267,cs),
(33,159,ls),
(33,138,o),
(45,126,o),
(66,126,cs),
(201,126,ls),
(218,126,o),
(230,131,o),
(242,143,cs),
(251,152,ls),
(264,165,o),
(276,149,o),
(276,120,cs),
(276,33,ls),
(276,12,o),
(288,0,o),
(309,0,cs)
);
},
{
closed = 1;
nodes = (
(660,120,ls),
(681,120,o),
(693,132,o),
(693,153,cs),
(693,297,ls),
(693,318,o),
(681,330,o),
(660,330,cs),
(552,330,ls),
(531,330,o),
(519,318,o),
(519,297,cs),
(519,153,ls),
(519,132,o),
(531,120,o),
(552,120,cs)
);
}
);
width = 726;
}
);
unicode = 12493;
},
{
glyphname = "no-kata";
lastChange = "2023-07-26 16:05:55 +0000";
layers = (
{
layerId = m01;
shapes = (
{
closed = 1;
nodes = (
(286,0,ls),
(304,0,o),
(316,8,o),
(325,23,cs),
(632,554,ls),
(645,576,o),
(635,594,o),
(609,594,cs),
(579,594,ls),
(561,594,o),
(549,586,o),
(540,571,cs),
(323,197,ls),
(314,182,o),
(302,174,o),
(284,174,cs),
(66,174,ls),
(45,174,o),
(33,162,o),
(33,141,cs),
(33,33,ls),
(33,12,o),
(45,0,o),
(66,0,cs)
);
}
);
width = 671;
}
);
unicode = 12494;
},
{
glyphname = "ha-kata";
lastChange = "2023-07-26 16:14:58 +0000";
layers = (
{
layerId = m01;
shapes = (
{
closed = 1;
nodes = (
(594,0,ls),
(615,0,o),
(627,12,o),
(627,33,cs),
(627,249,ls),
(627,270,o),
(615,282,o),
(594,282,cs),
(480,282,ls),
(459,282,o),
(447,294,o),
(447,315,cs),
(447,561,ls),
(447,582,o),
(435,594,o),
(414,594,cs),
(378,594,ls),
(357,594,o),
(345,582,o),
(345,561,cs),
(345,33,ls),
(345,12,o),
(357,0,o),
(378,0,cs)
);
},
{
closed = 1;
nodes = (
(168,0,ls),
(189,0,o),
(201,12,o),
(201,33,cs),
(201,561,ls),
(201,582,o),
(189,594,o),
(168,594,cs),
(168,594,ls),
(147,594,o),
(135,583,o),
(135,561,cs),
(135,306,ls),
(135,289,o),
(130,277,o),
(118,265,cs),
(50,197,ls),
(38,185,o),
(33,173,o),
(33,156,cs),
(33,33,ls),
(33,12,o),
(45,0,o),
(66,0,cs)
);
}
);
width = 660;
}
);
unicode = 12495;
},
{
glyphname = "hi-kata";
lastChange = "2023-07-21 07:26:05 +0000";
layers = (
{
layerId = m01;
shapes = (
{
closed = 1;
nodes = (
(594,0,ls),
(615,0,o),
(627,12,o),
(627,33,cs),
(627,33,ls),
(627,54,o),
(615,66,o),
(594,66,cs),
(246,66,ls),
(225,66,o),
(213,78,o),
(213,99,cs),
(213,363,ls),
(213,384,o),
(225,396,o),
(246,396,cs),
(594,396,ls),
(615,396,o),
(627,408,o),
(627,429,cs),
(627,429,ls),
(627,450,o),
(615,462,o),
(594,462,cs),
(246,462,ls),
(225,462,o),
(213,474,o),
(213,495,cs),
(213,561,ls),
(213,582,o),
(201,594,o),
(180,594,cs),
(66,594,ls),
(45,594,o),
(33,582,o),
(33,561,cs),
(33,135,ls),
(33,114,o),
(45,102,o),
(66,102,cs),
(66,102,ls),
(87,102,o),
(99,90,o),
(99,69,cs),
(99,33,ls),
(99,12,o),
(111,0,o),
(132,0,cs)
);
}
);
width = 660;
}
);
unicode = 12498;
},
{
glyphname = "hu-kata";
lastChange = "2023-07-21 07:26:05 +0000";
layers = (
{
background = {
shapes = (
{
closed = 1;
nodes = (
(621,516,l),
(605,516,o),
(591,530,o),
(591,546,c),
(591,564,l),
(591,581,o),
(578,594,o),
(561,594,c),
(63,594,l),
(47,594,o),
(33,581,o),
(33,564,c),
(33,558,l),
(33,542,o),
(47,528,o),
(63,528,c),
(417,528,l),
(434,528,o),
(447,515,o),
(447,498,c),
(447,370,l),
(447,353,o),
(438,329,o),
(428,317,c),
(328,197,l),
(318,184,o),
(296,174,o),
(279,174,c),
(165,174,l),
(149,174,o),
(135,160,o),
(135,144,c),
(135,30,l),
(135,13,o),
(149,0,o),
(165,0,c),
(308,0,l),
(325,0,o),
(347,10,o),
(357,23,c),
(674,403,l),
(684,416,o),
(693,439,o),
(693,456,c),
(693,486,l),
(693,503,o),
(680,516,o),
(663,516,c)
);
}
);
};
layerId = m01;
shapes = (
{
closed = 1;
nodes = (
(313,0,ls),
(330,0,o),
(343,5,o),
(354,19,cs),
(678,407,ls),
(688,419,o),
(693,432,o),
(693,448,cs),
(693,483,ls),
(693,504,o),
(681,516,o),
(660,516,cs),
(624,516,ls),
(603,516,o),
(591,528,o),
(591,549,cs),
(591,561,ls),
(591,582,o),
(579,594,o),
(558,594,cs),
(66,594,ls),
(45,594,o),
(33,582,o),
(33,561,cs),
(33,561,ls),
(33,540,o),
(45,528,o),
(66,528,cs),
(414,528,ls),
(435,528,o),
(447,516,o),
(447,495,cs),
(447,362,ls),
(447,346,o),
(442,333,o),
(432,321,cs),
(325,193,ls),
(314,179,o),
(301,174,o),
(284,174,cs),
(168,174,ls),
(147,174,o),
(135,162,o),
(135,141,cs),
(135,33,ls),
(135,12,o),
(147,0,o),
(168,0,cs)
);
}
);
width = 726;
}
);
unicode = 12501;
},
{
glyphname = "he-kata";
lastChange = "2023-07-21 07:26:05 +0000";
layers = (
{
layerId = m01;
shapes = (
{
closed = 1;
nodes = (
(693,222,ls),
(693,239,o),
(688,251,o),
(676,263,cs),
(362,577,ls),
(350,589,o),
(338,594,o),
(321,594,cs),
(243,594,ls),
(228,594,o),
(209,584,o),
(200,571,cs),
(39,292,ls),
(28,274,o),
(32,258,o),
(51,247,cs),
(51,247,ls),
(69,236,o),
(85,241,o),
(96,259,cs),
(201,440,ls),
(213,461,o),
(231,462,o),
(247,446,cs),
(652,41,ls),
(673,20,o),
(693,28,o),
(693,57,cs)
);
}
);
width = 726;
}
);
unicode = 12504;
},
{
glyphname = "ho-kata";
lastChange = "2023-07-21 07:26:05 +0000";
layers = (
{
layerId = m01;
shapes = (
{
closed = 1;
nodes = (
(417,0,ls),
(438,0,o),
(450,12,o),
(450,33,cs),
(450,429,ls),
(450,450,o),
(462,462,o),
(483,462,cs),
(660,462,ls),
(681,462,o),
(693,474,o),
(693,495,cs),
(693,495,ls),
(693,516,o),
(681,528,o),
(660,528,cs),
(483,528,ls),
(462,528,o),
(450,540,o),
(450,561,cs),
(450,627,ls),
(450,648,o),
(438,660,o),
(417,660,cs),
(309,660,ls),
(288,660,o),
(276,648,o),
(276,627,cs),
(276,561,ls),
(276,540,o),
(264,528,o),
(243,528,cs),
(66,528,ls),
(45,528,o),
(33,516,o),
(33,495,cs),
(33,495,ls),
(33,474,o),
(45,462,o),
(66,462,cs),
(243,462,ls),
(264,462,o),
(276,450,o),
(276,429,cs),
(276,33,ls),
(276,12,o),
(288,0,o),
(309,0,cs)
);
},
{
closed = 1;
nodes = (
(174,0,ls),
(195,0,o),
(207,12,o),
(207,33,cs),
(207,363,ls),
(207,384,o),
(195,396,o),
(174,396,cs),
(174,396,ls),
(153,396,o),
(141,384,o),
(141,363,cs),
(141,243,ls),
(141,222,o),
(129,210,o),
(108,210,cs),
(66,210,ls),
(45,210,o),
(33,198,o),
(33,177,cs),
(33,33,ls),
(33,12,o),
(45,0,o),
(66,0,cs)
);
},
{
closed = 1;
nodes = (
(660,66,ls),
(681,66,o),
(693,78,o),
(693,99,cs),
(693,297,ls),
(693,318,o),
(681,330,o),
(660,330,cs),
(552,330,ls),
(531,330,o),
(519,318,o),
(519,297,cs),
(519,99,ls),
(519,78,o),
(531,66,o),
(552,66,cs)
);
}
);
width = 726;
}
);
unicode = 12507;
},
{
glyphname = "ma-kata";
lastChange = "2023-07-28 06:13:03 +0000";
layers = (
{
layerId = m01;
shapes = (
{
closed = 1;
nodes = (
(490,0,ls),
(516,0,o),
(526,18,o),
(513,40,cs),
(469,116,ls),
(460,132,o),
(461,148,o),
(473,162,cs),
(678,408,ls),
(688,420,o),
(693,433,o),
(693,449,cs),
(693,561,ls),
(693,582,o),
(681,594,o),
(660,594,cs),
(66,594,ls),
(45,594,o),
(33,582,o),
(33,561,cs),
(33,561,ls),
(33,540,o),
(45,528,o),
(66,528,cs),
(414,528,ls),
(435,528,o),
(447,516,o),
(447,495,cs),
(447,363,ls),
(447,347,o),
(442,334,o),
(432,322,cs),
(409,294,ls),
(394,275,o),
(375,276,o),
(363,298,cs),
(358,307,ls),
(349,323,o),
(337,330,o),
(319,330,cs),
(145,330,ls),
(119,330,o),
(109,312,o),
(122,290,cs),
(277,23,ls),
(286,8,o),
(298,0,o),
(316,0,cs)
);
}
);
width = 726;
}
);
unicode = 12510;
},
{
glyphname = "mi-kata";
lastChange = "2023-07-26 15:49:05 +0000";
layers = (
{
layerId = m01;
shapes = (
{
closed = 1;
nodes = (
(660,0,ls),
(681,0,o),
(693,12,o),
(693,33,cs),
(693,135,ls),
(693,156,o),
(681,168,o),
(660,168,cs),
(373,168,ls),
(358,168,o),
(345,171,o),
(332,179,cs),
(307,193,ls),
(294,201,o),
(281,204,o),
(266,204,cs),
(66,204,ls),
(45,204,o),
(33,192,o),
(33,171,cs),
(33,135,ls),
(33,114,o),
(45,102,o),
(66,102,cs),
(239,102,ls),
(254,102,o),
(267,99,o),
(280,91,cs),
(419,11,ls),
(432,3,o),
(445,0,o),
(460,0,cs)
);
},
{
closed = 1;
nodes = (
(600,324,ls),
(621,324,o),
(633,336,o),
(633,357,cs),
(633,378,o),
(621,390,o),
(600,390,cs),
(126,390,ls),
(105,390,o),
(93,378,o),
(93,357,cs),
(93,336,o),
(105,324,o),
(126,324,cs)
);
},
{
closed = 1;
nodes = (
(660,480,ls),
(681,480,o),
(693,492,o),
(693,513,cs),
(693,561,ls),
(693,582,o),
(681,594,o),
(660,594,cs),
(66,594,ls),
(45,594,o),
(33,582,o),
(33,561,cs),
(33,540,o),
(45,528,o),
(66,528,cs),
(417,528,ls),
(433,528,o),
(447,517,o),
(447,504,cs),
(447,491,o),
(460,480,o),
(477,480,cs)
);
}
);
width = 726;
}
);
unicode = 12511;
},
{
glyphname = "mu-kata";
lastChange = "2023-07-31 11:08:56 +0000";
layers = (
{
layerId = m01;
shapes = (
{
closed = 1;
nodes = (
(660,0,ls),
(681,0,o),
(693,12,o),
(693,33,cs),
(693,249,ls),
(693,270,o),
(681,282,o),
(660,282,cs),
(480,282,ls),
(459,282,o),
(447,270,o),
(447,249,cs),
(447,99,ls),
(447,78,o),
(435,66,o),
(414,66,cs),
(240,66,ls),
(219,66,o),
(207,78,o),
(207,99,cs),
(207,175,ls),
(207,191,o),
(212,204,o),
(222,216,cs),
(503,554,ls),
(521,576,o),
(512,594,o),
(484,594,cs),
(388,594,ls),
(371,594,o),
(358,589,o),
(347,575,cs),
(48,216,ls),
(38,204,o),
(33,191,o),
(33,175,cs),
(33,135,ls),
(33,114,o),
(45,102,o),
(66,102,cs),
(66,102,ls),
(87,102,o),
(99,90,o),
(99,69,cs),
(99,33,ls),
(99,12,o),
(111,0,o),
(132,0,cs)
);
}
);
width = 726;
}
);
unicode = 12512;
},
{
glyphname = "me-kata";
lastChange = "2023-07-23 13:26:01 +0000";
layers = (
{
layerId = m01;
shapes = (
{
closed = 1;
nodes = (
(666,49,ls),
(681,64,o),
(681,80,o),
(666,95,cs),
(495,266,ls),
(481,280,o),
(479,295,o),
(489,312,cs),
(632,561,ls),
(645,583,o),
(635,601,o),
(609,601,cs),
(480,601,ls),
(462,601,o),
(450,593,o),
(441,578,cs),
(366,448,ls),
(354,427,o),
(336,426,o),
(320,442,cs),
(190,571,ls),
(175,586,o),
(159,586,o),
(144,571,cs),
(118,545,ls),
(103,530,o),
(103,514,o),
(118,499,cs),
(273,344,ls),
(287,330,o),
(289,315,o),
(279,298,cs),
(224,203,ls),
(215,188,o),
(203,180,o),
(185,180,cs),
(66,180,ls),
(45,180,o),
(33,168,o),
(33,147,cs),
(33,39,ls),
(33,18,o),
(45,6,o),
(66,6,cs),
(286,6,ls),
(304,6,o),
(316,14,o),
(325,29,cs),
(402,163,ls),
(414,183,o),
(432,185,o),
(448,169,cs),
(594,23,ls),
(609,8,o),
(625,8,o),
(640,23,cs)
);
}
);
width = 710;
}
);
unicode = 12513;
},
{
glyphname = "mo-kata";
lastChange = "2023-07-21 07:26:05 +0000";
layers = (
{
layerId = m01;
shapes = (
{
closed = 0;
nodes = (
(477,480,l)
);
},
{
closed = 1;
nodes = (
(447,504,ls),
(447,489,o),
(459,480,o),
(480,480,cs),
(660,480,ls),
(681,480,o),
(693,492,o),
(693,513,cs),
(693,561,ls),
(693,582,o),
(681,594,o),
(660,594,cs),
(66,594,ls),
(45,594,o),
(33,582,o),
(33,561,cs),
(33,561,ls),
(33,540,o),
(45,528,o),
(66,528,cs),
(102,528,ls),
(123,528,o),
(135,516,o),
(135,495,cs),
(135,417,ls),
(135,396,o),
(123,384,o),
(102,384,cs),
(66,384,ls),
(45,384,o),
(33,372,o),
(33,351,cs),
(33,351,ls),
(33,330,o),
(45,318,o),
(66,318,cs),
(102,318,ls),
(123,318,o),
(135,306,o),
(135,285,cs),
(135,135,ls),
(135,114,o),
(147,102,o),
(168,102,cs),
(168,102,ls),
(189,102,o),
(201,90,o),
(201,69,cs),
(201,33,ls),
(201,12,o),
(213,0,o),
(234,0,cs),
(660,0,ls),
(681,0,o),
(693,12,o),
(693,33,cs),
(693,33,ls),
(693,54,o),
(681,66,o),
(660,66,cs),
(414,66,ls),
(393,66,o),
(381,78,o),
(381,99,cs),
(381,285,ls),
(381,306,o),
(393,318,o),
(414,318,cs),
(660,318,ls),
(681,318,o),
(693,330,o),
(693,351,cs),
(693,351,ls),
(693,372,o),
(681,384,o),
(660,384,cs),
(414,384,ls),
(393,384,o),
(381,396,o),
(381,417,cs),
(381,495,ls),
(381,516,o),
(393,528,o),
(414,528,cs),
(414,528,ls),
(435,528,o),
(447,519,o),
(447,504,cs)
);
}
);
width = 726;
}
);
unicode = 12514;
},
{
glyphname = "ya-kata";
lastChange = "2023-07-21 07:26:05 +0000";
layers = (
{
layerId = m01;
shapes = (
{
closed = 1;
nodes = (
(282,0,ls),
(303,0,o),
(315,12,o),
(315,33,cs),
(315,495,ls),
(315,516,o),
(327,528,o),
(348,528,cs),
(522,528,ls),
(543,528,o),
(555,516,o),
(555,495,cs),
(555,406,ls),
(555,385,o),
(543,373,o),
(522,373,cs),
(412,373,ls),
(391,373,o),
(379,361,o),
(379,340,cs),
(379,232,ls),
(379,211,o),
(391,199,o),
(412,199,cs),
(485,199,ls),
(502,199,o),
(515,204,o),
(526,218,cs),
(678,400,ls),
(688,412,o),
(693,425,o),
(693,441,cs),
(693,561,ls),
(693,582,o),
(681,594,o),
(660,594,cs),
(348,594,ls),
(327,594,o),
(315,606,o),
(315,627,cs),
(315,627,ls),
(315,648,o),
(303,660,o),
(282,660,cs),
(168,660,ls),
(147,660,o),
(135,648,o),
(135,627,cs),
(135,627,ls),
(135,606,o),
(123,594,o),
(102,594,cs),
(66,594,ls),
(45,594,o),
(33,582,o),
(33,561,cs),
(33,561,ls),
(33,540,o),
(45,528,o),
(66,528,cs),
(102,528,ls),
(123,528,o),
(135,516,o),
(135,495,cs),
(135,33,ls),
(135,12,o),
(147,0,o),
(168,0,cs)
);
}
);
width = 726;
}
);
unicode = 12516;
},
{
glyphname = "yu-kata";
lastChange = "2023-07-29 00:37:54 +0000";
layers = (
{
layerId = m01;
shapes = (
{
closed = 1;
nodes = (
(660,0,ls),
(681,0,o),
(693,12,o),
(693,33,cs),
(693,141,ls),
(693,162,o),
(681,174,o),
(660,174,cs),
(660,174,ls),
(639,174,o),
(627,186,o),
(627,207,cs),
(627,458,ls),
(627,479,o),
(615,491,o),
(594,491,cs),
(558,491,ls),
(537,491,o),
(525,503,o),
(525,524,cs),
(525,561,ls),
(525,582,o),
(513,594,o),
(492,594,cs),
(132,594,ls),
(111,594,o),
(99,582,o),
(99,561,cs),
(99,561,ls),
(99,540,o),
(111,528,o),
(132,528,cs),
(414,528,ls),
(435,528,o),
(447,516,o),
(447,495,cs),
(447,207,ls),
(447,186,o),
(435,174,o),
(414,174,cs),
(66,174,ls),
(45,174,o),
(33,162,o),
(33,141,cs),
(33,33,ls),
(33,12,o),
(45,0,o),
(66,0,cs)
);
}
);
width = 726;
}
);
unicode = 12518;
},
{
glyphname = "yo-kata";
lastChange = "2023-07-24 22:06:33 +0000";
layers = (
{
layerId = m01;
shapes = (
{
closed = 1;
nodes = (
(594,0,ls),
(615,0,o),
(627,12,o),
(627,33,cs),
(627,561,ls),
(627,582,o),
(615,594,o),
(594,594,cs),
(66,594,ls),
(45,594,o),
(33,582,o),
(33,561,cs),
(33,561,ls),
(33,540,o),
(45,528,o),
(66,528,cs),
(492,528,ls),
(513,528,o),
(525,516,o),
(525,495,cs),
(525,411,ls),
(525,390,o),
(513,378,o),
(492,378,cs),
(66,378,ls),
(45,378,o),
(33,366,o),
(33,345,cs),
(33,345,ls),
(33,324,o),
(45,312,o),
(66,312,cs),
(492,312,ls),
(513,312,o),
(525,300,o),
(525,279,cs),
(525,279,ls),
(525,258,o),
(513,246,o),
(492,246,cs),
(414,246,ls),
(393,246,o),
(381,234,o),
(381,213,cs),
(381,99,ls),
(381,78,o),
(369,66,o),
(348,66,cs),
(66,66,ls),
(45,66,o),
(33,54,o),
(33,33,cs),
(33,33,ls),
(33,12,o),
(45,0,o),
(66,0,cs)
);
}
);
width = 660;
}
);
unicode = 12520;
},
{
glyphname = "ra-kata";
lastChange = "2023-07-23 13:23:14 +0000";
layers = (
{
layerId = m01;
shapes = (
{
closed = 1;
nodes = (
(393,0,ls),
(410,0,o),
(423,5,o),
(434,19,cs),
(678,312,ls),
(688,324,o),
(693,337,o),
(693,353,cs),
(693,420,ls),
(693,441,o),
(681,453,o),
(660,453,cs),
(66,453,ls),
(45,453,o),
(33,441,o),
(33,420,cs),
(33,420,ls),
(33,399,o),
(45,387,o),
(66,387,cs),
(514,387,ls),
(542,387,o),
(551,369,o),
(533,347,cs),
(405,193,ls),
(394,179,o),
(381,174,o),
(364,174,cs),
(188,174,ls),
(167,174,o),
(155,162,o),
(155,141,cs),
(155,33,ls),
(155,12,o),
(167,0,o),
(188,0,cs)
);
},
{
closed = 0;
nodes = (
(477,480,l)
);
},
{
closed = 1;
nodes = (
(660,480,ls),
(681,480,o),
(693,492,o),
(693,513,cs),
(693,561,ls),
(693,582,o),
(681,594,o),
(660,594,cs),
(66,594,ls),
(45,594,o),
(33,582,o),
(33,561,cs),
(33,561,ls),
(33,540,o),
(45,528,o),
(66,528,cs),
(414,528,ls),
(435,528,o),
(447,519,o),
(447,504,cs),
(447,504,l),
(447,504,ls),
(447,489,o),
(459,480,o),
(480,480,cs)
);
}
);
width = 726;
}
);
unicode = 12521;
},
{
glyphname = "ri-kata";
lastChange = "2023-07-29 00:42:43 +0000";
layers = (
{
layerId = m01;
shapes = (
{
closed = 1;
nodes = (
(462,0,ls),
(483,0,o),
(495,12,o),
(495,33,cs),
(495,69,ls),
(495,90,o),
(507,102,o),
(528,102,cs),
(528,102,ls),
(549,102,o),
(561,114,o),
(561,135,cs),
(561,429,ls),
(561,450,o),
(549,462,o),
(528,462,cs),
(528,462,ls),
(507,462,o),
(495,474,o),
(495,495,cs),
(495,561,ls),
(495,582,o),
(483,594,o),
(462,594,cs),
(348,594,ls),
(327,594,o),
(315,582,o),
(315,561,cs),
(315,99,ls),
(315,78,o),
(303,66,o),
(282,66,cs),
(117,66,ls),
(96,66,o),
(84,54,o),
(84,33,cs),
(84,33,ls),
(84,12,o),
(96,0,o),
(117,0,cs)
);
},
{
closed = 1;
nodes = (
(102,264,ls),
(123,264,o),
(135,276,o),
(135,297,cs),
(135,561,ls),
(135,582,o),
(123,594,o),
(102,594,cs),
(66,594,ls),
(45,594,o),
(33,582,o),
(33,561,cs),
(33,297,ls),
(33,276,o),
(45,264,o),
(66,264,cs)
);
}
);
width = 594;
}
);
unicode = 12522;
},
{
glyphname = "ru-kata";
lastChange = "2023-07-26 16:30:26 +0000";
layers = (
{
layerId = m01;
shapes = (
{
closed = 1;
nodes = (
(458,0,ls),
(475,0,o),
(488,5,o),
(499,19,cs),
(678,234,ls),
(688,246,o),
(693,259,o),
(693,275,cs),
(693,393,ls),
(693,414,o),
(681,426,o),
(660,426,cs),
(612,426,ls),
(591,426,o),
(579,414,o),
(579,393,cs),
(579,275,ls),
(579,259,o),
(574,246,o),
(564,234,cs),
(512,171,ls),
(492,148,o),
(471,156,o),
(471,186,cs),
(471,561,ls),
(471,582,o),
(459,594,o),
(438,594,cs),
(396,594,ls),
(375,594,o),
(363,582,o),
(363,561,cs),
(363,33,ls),
(363,12,o),
(375,0,o),
(396,0,cs)
);
},
{
closed = 1;
nodes = (
(253,80,ls),
(271,86,o),
(279,99,o),
(279,118,cs),
(279,561,ls),
(279,582,o),
(267,594,o),
(246,594,cs),
(138,594,ls),
(117,594,o),
(105,582,o),
(105,561,cs),
(105,124,ls),
(105,105,o),
(96,93,o),
(78,87,cs),
(59,80,ls),
(41,74,o),
(33,61,o),
(33,42,cs),
(33,38,l),
(33,38,ls),
(33,15,o),
(48,5,o),
(71,14,cs)
);
}
);
width = 726;
}
);
unicode = 12523;
},
{
glyphname = "re-kata";
lastChange = "2023-07-21 07:39:19 +0000";
layers = (
{
layerId = m01;
shapes = (
{
closed = 1;
nodes = (
(200,0,o),
(218,0,o),
(353,0,cs),
(373,0,o),
(386,5,o),
(397,19,cs),
(576,234,ls),
(586,246,o),
(591,259,o),
(591,275,cs),
(591,393,ls),
(591,414,o),
(579,426,o),
(558,426,cs),
(450,426,ls),
(429,426,o),
(417,414,o),
(417,393,cs),
(417,275,ls),
(417,259,o),
(412,247,o),
(402,234,cs),
(369,193,ls),
(358,179,o),
(345,174,o),
(328,174,cs),
(241,174,ls),
(220,174,o),
(208,186,o),
(208,207,cs),
(208,561,ls),
(208,582,o),
(196,594,o),
(175,594,cs),
(132,594,ls),
(111,594,o),
(99,582,o),
(99,561,cs),
(99,561,ls),
(99,540,o),
(87,528,o),
(66,528,cs),
(66,528,ls),
(45,528,o),
(33,516,o),
(33,495,cs),
(33,33,ls),
(33,12,o),
(45,0,o),
(67,0,cs)
);
}
);
width = 624;
}
);
unicode = 12524;
},
{
glyphname = "ro-kata";
lastChange = "2023-07-31 11:22:51 +0000";
layers = (
{
layerId = m01;
shapes = (
{
closed = 1;
nodes = (
(33,33,ls),
(33,12,o),
(45,0,o),
(66,0,cs),
(594,0,ls),
(615,0,o),
(627,12,o),
(627,33,cs),
(627,561,ls),
(627,582,o),
(615,594,o),
(594,594,cs),
(66,594,ls),
(45,594,o),
(33,582,o),
(33,561,cs)
);
},
{
closed = 1;
nodes = (
);
},
{
closed = 1;
nodes = (
(99,495,ls),
(99,516,o),
(111,528,o),
(132,528,cs),
(492,528,ls),
(513,528,o),
(525,516,o),
(525,495,cs),
(525,279,ls),
(525,258,o),
(513,246,o),
(492,246,cs),
(414,246,ls),
(393,246,o),
(381,234,o),
(381,213,cs),
(381,99,ls),
(381,78,o),
(369,66,o),
(348,66,cs),
(132,66,ls),
(111,66,o),
(99,78,o),
(99,99,cs)
);
}
);
width = 660;
},
{
associatedMasterId = m01;
layerId = "19978BF4-8333-4DA5-BA93-28028C0EE7F7";
name = "23715 4:36";
shapes = (
{
closed = 1;
nodes = (
(547,307,l),
(547,289,o),
(532,274,o),
(513,274,c),
(420,274,l),
(402,274,o),
(387,259,o),
(387,240,c),
(387,107,l),
(387,89,o),
(372,74,o),
(353,74,c),
(107,74,l),
(88,74,o),
(73,89,o),
(73,107,c),
(73,554,l),
(73,572,o),
(88,587,o),
(107,587,c),
(513,587,l),
(532,587,o),
(547,572,o),
(547,554,c)
);
},
{
closed = 1;
nodes = (
(33,660,l),
(15,660,o),
(0,645,o),
(0,627,c),
(0,34,l),
(0,15,o),
(15,0,o),
(33,0,c),
(627,0,l),
(645,0,o),
(660,15,o),
(660,34,c),
(660,627,l),
(660,645,o),
(645,660,o),
(627,660,c)
);
}
);
width = 660;
}
);
unicode = 12525;
},
{
glyphname = "wa-kata";
lastChange = "2023-07-26 15:45:25 +0000";
layers = (
{
layerId = m01;
shapes = (
{
closed = 1;
nodes = (
(345,0,ls),
(362,0,o),
(375,5,o),
(386,19,cs),
(630,312,ls),
(640,324,o),
(645,337,o),
(645,353,cs),
(645,495,ls),
(645,516,o),
(633,528,o),
(612,528,cs),
(612,528,ls),
(591,528,o),
(579,540,o),
(579,561,cs),
(579,561,ls),
(579,582,o),
(567,594,o),
(546,594,cs),
(66,594,ls),
(45,594,o),
(33,582,o),
(33,561,cs),
(33,429,ls),
(33,408,o),
(45,396,o),
(66,396,cs),
(174,396,ls),
(195,396,o),
(207,408,o),
(207,429,cs),
(207,495,ls),
(207,516,o),
(219,528,o),
(240,528,cs),
(438,528,ls),
(459,528,o),
(471,516,o),
(471,495,cs),
(471,353,ls),
(471,337,o),
(466,324,o),
(456,312,cs),
(230,40,ls),
(212,18,o),
(221,0,o),
(249,0,cs)
);
}
);
width = 678;
}
);
unicode = 12527;
},
{
glyphname = "wi-kata";
lastChange = "2023-07-26 23:18:26 +0000";
layers = (
{
layerId = m01;
shapes = (
{
closed = 1;
nodes = (
(594,0,ls),
(615,0,o),
(627,12,o),
(627,33,cs),
(627,72,ls),
(627,93,o),
(639,105,o),
(660,105,cs),
(660,105,ls),
(681,105,o),
(693,117,o),
(693,138,cs),
(693,174,ls),
(693,195,o),
(681,207,o),
(660,207,cs),
(660,207,ls),
(639,207,o),
(627,219,o),
(627,240,cs),
(627,462,ls),
(627,483,o),
(639,495,o),
(660,495,cs),
(660,495,ls),
(681,495,o),
(693,507,o),
(693,528,cs),
(693,528,ls),
(693,549,o),
(681,561,o),
(660,561,cs),
(588,561,ls),
(567,561,o),
(555,573,o),
(555,594,cs),
(555,627,ls),
(555,648,o),
(543,660,o),
(522,660,cs),
(414,660,ls),
(393,660,o),
(381,648,o),
(381,627,cs),
(381,594,ls),
(381,573,o),
(369,561,o),
(348,561,cs),
(132,561,ls),
(111,561,o),
(99,549,o),
(99,528,cs),
(99,240,ls),
(99,219,o),
(87,207,o),
(66,207,cs),
(66,207,ls),
(45,207,o),
(33,195,o),
(33,174,cs),
(33,138,ls),
(33,117,o),
(45,105,o),
(66,105,cs),
(348,105,ls),
(369,105,o),
(381,93,o),
(381,72,cs),
(381,33,ls),
(381,12,o),
(393,0,o),
(414,0,cs)
);
},
{
closed = 1;
nodes = (
(165,462,ls),
(165,483,o),
(177,495,o),
(198,495,cs),
(348,495,ls),
(369,495,o),
(381,483,o),
(381,462,cs),
(381,240,ls),
(381,219,o),
(369,207,o),
(348,207,cs),
(198,207,ls),
(177,207,o),
(165,219,o),
(165,240,cs)
);
}
);
width = 726;
}
);
unicode = 12528;
},
{
glyphname = "we-kata";
lastChange = "2023-07-26 23:19:50 +0000";
layers = (
{
layerId = m01;
shapes = (
{
closed = 1;
nodes = (
(240,99,ls),
(240,78,o),
(228,66,o),
(207,66,cs),
(66,66,ls),
(45,66,o),
(33,54,o),
(33,33,cs),
(33,33,ls),
(33,12,o),
(45,0,o),
(66,0,cs),
(660,0,ls),
(681,0,o),
(693,12,o),
(693,33,cs),
(693,69,ls),
(693,90,o),
(681,102,o),
(660,102,cs),
(519,102,ls),
(498,102,o),
(486,114,o),
(486,135,cs),
(486,418,ls),
(486,439,o),
(474,451,o),
(453,451,cs),
(273,451,ls),
(252,451,o),
(240,439,o),
(240,418,cs)
);
},
{
closed = 1;
nodes = (
(66,594,ls),
(45,594,o),
(33,582,o),
(33,561,cs),
(33,561,ls),
(33,540,o),
(45,528,o),
(66,528,cs),
(135,528,l),
(315,528,l),
(594,528,ls),
(615,528,o),
(627,516,o),
(627,495,cs),
(627,459,ls),
(627,438,o),
(615,426,o),
(594,426,cs),
(546,426,ls),
(522,426,o),
(512,411,o),
(520,388,cs),
(559,278,ls),
(565,260,o),
(578,252,o),
(597,252,cs),
(660,252,ls),
(681,252,o),
(693,264,o),
(693,285,cs),
(693,561,ls),
(693,582,o),
(681,594,o),
(660,594,cs)
);
}
);
width = 726;
}
);
unicode = 12529;
},
{
glyphname = "wo-kata";
lastChange = "2023-07-26 15:46:53 +0000";
layers = (
{
layerId = m01;
shapes = (
{
closed = 1;
nodes = (
(333,0,ls),
(350,0,o),
(363,5,o),
(374,19,cs),
(618,312,ls),
(628,324,o),
(633,337,o),
(633,353,cs),
(633,495,ls),
(633,516,o),
(621,528,o),
(600,528,cs),
(600,528,ls),
(579,528,o),
(567,540,o),
(567,561,cs),
(567,561,ls),
(567,582,o),
(555,594,o),
(534,594,cs),
(66,594,ls),
(45,594,o),
(33,582,o),
(33,561,cs),
(33,561,ls),
(33,540,o),
(45,528,o),
(66,528,cs),
(426,528,ls),
(447,528,o),
(459,516,o),
(459,495,cs),
(459,462,ls),
(459,441,o),
(447,429,o),
(426,429,cs),
(66,429,ls),
(45,429,o),
(33,417,o),
(33,396,cs),
(33,396,ls),
(33,375,o),
(45,363,o),
(66,363,cs),
(434,363,ls),
(462,363,o),
(471,345,o),
(453,323,cs),
(345,193,ls),
(334,179,o),
(321,174,o),
(304,174,cs),
(188,174,ls),
(167,174,o),
(155,162,o),
(155,141,cs),
(155,33,ls),
(155,12,o),
(167,0,o),
(188,0,cs)
);
}
);
width = 666;
}
);
unicode = 12530;
},
{
glyphname = "n-kata";
lastChange = "2023-07-28 06:11:51 +0000";
layers = (
{
layerId = m01;
shapes = (
{
closed = 1;
nodes = (
(594,0,ls),
(615,0,o),
(627,12,o),
(627,33,cs),
(627,69,ls),
(627,90,o),
(639,102,o),
(660,102,cs),
(660,102,ls),
(681,102,o),
(693,114,o),
(693,135,cs),
(693,561,ls),
(693,582,o),
(681,594,o),
(660,594,cs),
(480,594,ls),
(459,594,o),
(447,582,o),
(447,561,cs),
(447,99,ls),
(447,78,o),
(435,66,o),
(414,66,cs),
(66,66,ls),
(45,66,o),
(33,54,o),
(33,33,cs),
(33,33,ls),
(33,12,o),
(45,0,o),
(66,0,cs)
);
},
{
closed = 1;
nodes = (
(246,420,ls),
(267,420,o),
(279,432,o),
(279,453,cs),
(279,561,ls),
(279,582,o),
(267,594,o),
(246,594,cs),
(66,594,ls),
(45,594,o),
(33,582,o),
(33,561,cs),
(33,453,ls),
(33,432,o),
(45,420,o),
(66,420,cs)
);
}
);
width = 726;
}
);
unicode = 12531;
},
{
glyphname = "ke-kata.cv01";
lastChange = "2023-07-31 11:17:34 +0000";
layers = (
{
layerId = m01;
shapes = (
{
closed = 1;
nodes = (
(528,0,ls),
(549,0,o),
(561,12,o),
(561,33,cs),
(561,33,ls),
(561,54,o),
(573,66,o),
(594,66,cs),
(594,66,ls),
(615,66,o),
(627,78,o),
(627,99,cs),
(627,429,ls),
(627,450,o),
(639,462,o),
(660,462,cs),
(660,462,ls),
(681,462,o),
(693,474,o),
(693,495,cs),
(693,495,ls),
(693,516,o),
(681,528,o),
(660,528,cs),
(240,528,ls),
(219,528,o),
(207,540,o),
(207,561,cs),
(207,627,ls),
(207,648,o),
(195,660,o),
(174,660,cs),
(174,660,ls),
(153,660,o),
(141,648,o),
(141,627,cs),
(141,495,ls),
(141,474,o),
(129,462,o),
(108,462,cs),
(66,462,ls),
(45,462,o),
(33,450,o),
(33,429,cs),
(33,261,ls),
(33,240,o),
(45,228,o),
(66,228,cs),
(174,228,ls),
(195,228,o),
(207,240,o),
(207,261,cs),
(207,429,ls),
(207,450,o),
(219,462,o),
(240,462,cs),
(348,462,ls),
(369,462,o),
(381,450,o),
(381,429,cs),
(381,99,ls),
(381,78,o),
(369,66,o),
(348,66,cs),
(264,66,ls),
(243,66,o),
(231,54,o),
(231,33,cs),
(231,33,ls),
(231,12,o),
(243,0,o),
(264,0,cs)
);
}
);
width = 726;
}
);
},
{
glyphname = "no-kata.cv01";
lastChange = "2023-07-26 16:06:19 +0000";
layers = (
{
layerId = m01;
shapes = (
{
closed = 1;
nodes = (
(286,0,ls),
(304,0,o),
(316,8,o),
(325,23,cs),
(632,554,ls),
(645,576,o),
(635,594,o),
(609,594,cs),
(480,594,ls),
(462,594,o),
(450,586,o),
(441,571,cs),
(225,197,ls),
(216,182,o),
(204,174,o),
(186,174,cs),
(66,174,ls),
(45,174,o),
(33,162,o),
(33,141,cs),
(33,33,ls),
(33,12,o),
(45,0,o),
(66,0,cs)
);
}
);
width = 671;
}
);
},
{
glyphname = "ha-kata.cv01";
lastChange = "2023-07-26 16:14:03 +0000";
layers = (
{
layerId = m01;
shapes = (
{
closed = 1;
nodes = (
(660,0,ls),
(681,0,o),
(693,12,o),
(693,33,cs),
(693,141,ls),
(693,162,o),
(681,174,o),
(660,174,cs),
(644,174,ls),
(625,174,o),
(612,183,o),
(607,202,cs),
(578,310,ls),
(574,325,o),
(573,335,o),
(573,350,cs),
(573,495,ls),
(573,516,o),
(561,528,o),
(540,528,cs),
(540,528,ls),
(519,528,o),
(507,540,o),
(507,561,cs),
(507,561,ls),
(507,582,o),
(495,594,o),
(474,594,cs),
(432,594,ls),
(411,594,o),
(399,582,o),
(399,561,cs),
(399,350,ls),
(399,335,o),
(400,325,o),
(404,310,cs),
(479,28,ls),
(484,9,o),
(497,0,o),
(516,0,cs)
);
},
{
closed = 1;
nodes = (
(210,0,ls),
(229,0,o),
(242,9,o),
(247,28,cs),
(322,310,ls),
(326,325,o),
(327,335,o),
(327,350,cs),
(327,561,ls),
(327,582,o),
(315,594,o),
(294,594,cs),
(186,594,ls),
(165,594,o),
(153,582,o),
(153,561,cs),
(153,350,ls),
(153,335,o),
(152,325,o),
(148,310,cs),
(119,202,ls),
(114,183,o),
(101,174,o),
(82,174,cs),
(66,174,ls),
(45,174,o),
(33,162,o),
(33,141,cs),
(33,33,ls),
(33,12,o),
(45,0,o),
(66,0,cs)
);
}
);
width = 726;
}
);
},
{
glyphname = "yo-kata.cv01";
lastChange = "2023-08-29 13:12:53 +0000";
layers = (
{
layerId = m01;
shapes = (
{
closed = 1;
nodes = (
(381,99,ls),
(381,78,o),
(369,66,o),
(348,66,cs),
(66,66,ls),
(45,66,o),
(33,54,o),
(33,33,cs),
(33,33,ls),
(33,12,o),
(45,0,o),
(66,0,cs),
(594,0,ls),
(615,0,o),
(627,12,o),
(627,33,cs),
(627,561,ls),
(627,582,o),
(615,594,o),
(594,594,cs),
(66,594,ls),
(45,594,o),
(33,582,o),
(33,561,cs),
(33,561,ls),
(33,540,o),
(45,528,o),
(66,528,cs),
(492,528,ls),
(513,528,o),
(525,516,o),
(525,495,cs),
(525,411,ls),
(525,390,o),
(513,378,o),
(492,378,cs),
(66,378,ls),
(45,378,o),
(33,366,o),
(33,345,cs),
(33,345,ls),
(33,324,o),
(45,312,o),
(66,312,cs),
(348,312,ls),
(369,312,o),
(381,300,o),
(381,279,cs)
);
}
);
width = 660;
}
);
},
{
glyphname = "ru-kata.cv01";
lastChange = "2023-07-26 16:30:38 +0000";
layers = (
{
layerId = m01;
shapes = (
{
closed = 1;
nodes = (
(549,0,ls),
(568,0,o),
(581,9,o),
(586,28,cs),
(685,397,ls),
(690,417,o),
(681,432,o),
(661,438,cs),
(661,438,ls),
(641,443,o),
(626,434,o),
(621,414,cs),
(564,202,ls),
(559,183,o),
(546,174,o),
(527,174,cs),
(402,174,ls),
(381,174,o),
(369,186,o),
(369,207,cs),
(369,561,ls),
(369,582,o),
(357,594,o),
(336,594,cs),
(300,594,ls),
(279,594,o),
(267,582,o),
(267,561,cs),
(267,33,ls),
(267,12,o),
(279,0,o),
(300,0,cs)
);
},
{
closed = 1;
nodes = (
(168,0,ls),
(189,0,o),
(201,12,o),
(201,33,cs),
(201,561,ls),
(201,582,o),
(189,594,o),
(168,594,cs),
(168,594,ls),
(147,594,o),
(135,582,o),
(135,561,cs),
(135,306,ls),
(135,289,o),
(130,277,o),
(118,265,cs),
(50,197,ls),
(38,185,o),
(33,173,o),
(33,156,cs),
(33,33,ls),
(33,12,o),
(45,0,o),
(66,0,cs)
);
}
);
width = 726;
}
);
},
{
export = 0;
glyphname = "si-kata.001";
lastChange = "2023-07-26 16:06:34 +0000";
layers = (
{
layerId = m01;
shapes = (
{
closed = 1;
nodes = (
(313,0,ls),
(330,0,o),
(343,5,o),
(354,19,cs),
(678,408,ls),
(688,420,o),
(693,433,o),
(693,449,cs),
(693,561,ls),
(693,582,o),
(681,594,o),
(660,594,cs),
(552,594,ls),
(531,594,o),
(519,582,o),
(519,561,cs),
(519,449,ls),
(519,433,o),
(514,420,o),
(504,408,cs),
(325,193,ls),
(314,179,o),
(301,174,o),
(284,174,cs),
(66,174,ls),
(45,174,o),
(33,162,o),
(33,141,cs),
(33,33,ls),
(33,12,o),
(45,0,o),
(66,0,cs)
);
},
{
closed = 1;
nodes = (
(246,323,ls),
(267,323,o),
(279,335,o),
(279,356,cs),
(279,392,ls),
(279,413,o),
(267,425,o),
(246,425,cs),
(66,425,ls),
(45,425,o),
(33,413,o),
(33,392,cs),
(33,356,ls),
(33,335,o),
(45,323,o),
(66,323,cs)
);
},
{
closed = 1;
nodes = (
(246,492,ls),
(267,492,o),
(279,504,o),
(279,525,cs),
(279,561,ls),
(279,582,o),
(267,594,o),
(246,594,cs),
(66,594,ls),
(45,594,o),
(33,582,o),
(33,561,cs),
(33,525,ls),
(33,504,o),
(45,492,o),
(66,492,cs)
);
}
);
width = 726;
}
);
},
{
export = 0;
glyphname = "tu-kata.001";
lastChange = "2023-07-26 16:06:34 +0000";
layers = (
{
layerId = m01;
shapes = (
{
closed = 1;
nodes = (
(410,0,ls),
(428,0,o),
(440,8,o),
(449,23,cs),
(616,311,ls),
(624,324,o),
(627,337,o),
(627,352,cs),
(627,495,ls),
(627,516,o),
(615,528,o),
(594,528,cs),
(558,528,ls),
(537,528,o),
(525,540,o),
(525,561,cs),
(525,561,ls),
(525,582,o),
(513,594,o),
(492,594,cs),
(486,594,ls),
(465,594,o),
(453,582,o),
(453,561,cs),
(453,352,ls),
(453,336,o),
(450,324,o),
(442,311,cs),
(313,89,ls),
(304,74,o),
(292,66,o),
(274,66,cs),
(66,66,ls),
(45,66,o),
(33,54,o),
(33,33,cs),
(33,33,ls),
(33,12,o),
(45,0,o),
(66,0,cs)
);
},
{
closed = 1;
nodes = (
(102,329,ls),
(123,329,o),
(135,340,o),
(135,362,cs),
(136,561,ls),
(136,583,o),
(124,594,o),
(103,594,cs),
(67,594,ls),
(46,594,o),
(34,583,o),
(34,561,cs),
(33,362,ls),
(33,340,o),
(45,329,o),
(66,329,cs)
);
},
{
closed = 1;
nodes = (
(270,329,ls),
(291,329,o),
(303,340,o),
(303,362,cs),
(304,561,ls),
(304,583,o),
(292,594,o),
(271,594,cs),
(235,594,ls),
(214,594,o),
(202,583,o),
(202,561,cs),
(201,362,ls),
(201,340,o),
(213,329,o),
(234,329,cs)
);
}
);
width = 660;
}
);
},
{
export = 0;
glyphname = "mi-kata.001";
lastChange = "2023-07-26 16:06:34 +0000";
layers = (
{
layerId = m01;
shapes = (
{
closed = 1;
nodes = (
(660,0,ls),
(681,0,o),
(693,12,o),
(693,33,cs),
(693,69,ls),
(693,90,o),
(681,102,o),
(660,102,cs),
(487,102,ls),
(472,102,o),
(459,105,o),
(446,113,cs),
(307,193,ls),
(294,201,o),
(281,204,o),
(266,204,cs),
(66,204,ls),
(45,204,o),
(33,192,o),
(33,171,cs),
(33,135,ls),
(33,114,o),
(45,102,o),
(66,102,cs),
(239,102,ls),
(254,102,o),
(267,99,o),
(280,91,cs),
(419,11,ls),
(432,3,o),
(445,0,o),
(460,0,cs)
);
},
{
closed = 1;
nodes = (
(600,324,ls),
(621,324,o),
(633,336,o),
(633,357,cs),
(633,357,ls),
(633,378,o),
(621,390,o),
(600,390,cs),
(126,390,ls),
(105,390,o),
(93,378,o),
(93,357,cs),
(93,357,ls),
(93,336,o),
(105,324,o),
(126,324,cs)
);
},
{
closed = 1;
nodes = (
(660,480,ls),
(681,480,o),
(693,492,o),
(693,513,cs),
(693,561,ls),
(693,582,o),
(681,594,o),
(660,594,cs),
(66,594,ls),
(45,594,o),
(33,582,o),
(33,561,cs),
(33,561,ls),
(33,540,o),
(45,528,o),
(66,528,cs),
(417,528,ls),
(433,528,o),
(447,517,o),
(447,504,cs),
(447,491,o),
(460,480,o),
(477,480,cs)
);
}
);
width = 726;
}
);
},
{
export = 0;
glyphname = "mu-kata.001";
lastChange = "2023-07-26 16:06:34 +0000";
layers = (
{
layerId = m01;
shapes = (
{
closed = 1;
nodes = (
(660,0,ls),
(681,0,o),
(693,12,o),
(693,33,cs),
(693,165,ls),
(693,186,o),
(681,198,o),
(660,198,cs),
(552,198,ls),
(531,198,o),
(519,186,o),
(519,165,cs),
(519,99,ls),
(519,78,o),
(507,66,o),
(486,66,cs),
(240,66,ls),
(219,66,o),
(207,78,o),
(207,99,cs),
(207,175,ls),
(207,191,o),
(212,204,o),
(222,216,cs),
(503,554,ls),
(521,576,o),
(512,594,o),
(484,594,cs),
(388,594,ls),
(371,594,o),
(358,589,o),
(347,575,cs),
(48,216,ls),
(38,204,o),
(33,191,o),
(33,175,cs),
(33,135,ls),
(33,114,o),
(45,102,o),
(66,102,cs),
(66,102,ls),
(87,102,o),
(99,90,o),
(99,69,cs),
(99,33,ls),
(99,12,o),
(111,0,o),
(132,0,cs)
);
}
);
width = 726;
}
);
},
{
glyphname = zero;
lastChange = "2023-07-28 06:39:19 +0000";
layers = (
{
layerId = m01;
shapes = (
{
closed = 1;
nodes = (
(495,0,ls),
(516,0,o),
(528,12,o),
(528,33,cs),
(528,561,ls),
(528,582,o),
(516,594,o),
(495,594,cs),
(66,594,ls),
(45,594,o),
(33,582,o),
(33,561,cs),
(33,33,ls),
(33,12,o),
(45,0,o),
(66,0,cs)
);
},
{
closed = 1;
nodes = (
(99,495,ls),
(99,516,o),
(111,528,o),
(132,528,cs),
(393,528,ls),
(414,528,o),
(426,516,o),
(426,495,cs),
(426,279,ls),
(426,258,o),
(414,246,o),
(393,246,cs),
(315,246,ls),
(294,246,o),
(282,234,o),
(282,213,cs),
(282,99,ls),
(282,78,o),
(270,66,o),
(249,66,cs),
(132,66,ls),
(111,66,o),
(99,78,o),
(99,99,cs)
);
}
);
width = 561;
}
);
unicode = 48;
},
{
glyphname = one;
lastChange = "2023-07-28 11:43:09 +0000";
layers = (
{
layerId = m01;
shapes = (
{
closed = 1;
nodes = (
(234,0,ls),
(255,0,o),
(267,12,o),
(267,33,cs),
(267,141,ls),
(267,162,o),
(255,174,o),
(234,174,cs),
(234,174,ls),
(213,174,o),
(201,186,o),
(201,207,cs),
(201,561,ls),
(201,582,o),
(189,594,o),
(168,594,cs),
(66,594,ls),
(45,594,o),
(33,582,o),
(33,561,cs),
(33,561,ls),
(33,540,o),
(45,528,o),
(66,528,cs),
(66,528,ls),
(87,528,o),
(99,516,o),
(99,495,cs),
(99,207,ls),
(99,186,o),
(87,174,o),
(66,174,cs),
(66,174,ls),
(45,174,o),
(33,162,o),
(33,141,cs),
(33,33,ls),
(33,12,o),
(45,0,o),
(66,0,cs)
);
}
);
width = 300;
}
);
unicode = 49;
},
{
glyphname = two;
lastChange = "2023-07-29 00:47:27 +0000";
layers = (
{
layerId = m01;
shapes = (
{
closed = 1;
nodes = (
(495,0,ls),
(516,0,o),
(528,12,o),
(528,33,cs),
(528,33,ls),
(528,54,o),
(516,66,o),
(495,66,cs),
(240,66,ls),
(219,66,o),
(207,78,o),
(207,99,cs),
(207,231,ls),
(207,252,o),
(219,264,o),
(240,264,cs),
(495,264,ls),
(516,264,o),
(528,276,o),
(528,297,cs),
(528,561,ls),
(528,582,o),
(516,594,o),
(495,594,cs),
(66,594,ls),
(45,594,o),
(33,582,o),
(33,561,cs),
(33,561,ls),
(33,540,o),
(45,528,o),
(66,528,cs),
(393,528,ls),
(414,528,o),
(426,516,o),
(426,495,cs),
(426,363,ls),
(426,342,o),
(414,330,o),
(393,330,cs),
(66,330,ls),
(45,330,o),
(33,318,o),
(33,297,cs),
(33,33,ls),
(33,12,o),
(45,0,o),
(66,0,cs)
);
}
);
width = 561;
}
);
unicode = 50;
},
{
glyphname = three;
lastChange = "2023-07-29 00:48:28 +0000";
layers = (
{
layerId = m01;
shapes = (
{
closed = 1;
nodes = (
(495,0,ls),
(516,0,o),
(528,12,o),
(528,33,cs),
(528,297,ls),
(528,318,o),
(516,330,o),
(495,330,cs),
(495,330,ls),
(474,330,o),
(462,342,o),
(462,363,cs),
(462,561,ls),
(462,582,o),
(450,594,o),
(429,594,cs),
(66,594,ls),
(45,594,o),
(33,582,o),
(33,561,cs),
(33,561,ls),
(33,540,o),
(45,528,o),
(66,528,cs),
(327,528,ls),
(348,528,o),
(360,516,o),
(360,495,cs),
(360,363,ls),
(360,342,o),
(348,330,o),
(327,330,cs),
(66,330,ls),
(45,330,o),
(33,318,o),
(33,297,cs),
(33,297,ls),
(33,276,o),
(45,264,o),
(66,264,cs),
(321,264,ls),
(342,264,o),
(354,252,o),
(354,231,cs),
(354,99,ls),
(354,78,o),
(342,66,o),
(321,66,cs),
(66,66,ls),
(45,66,o),
(33,54,o),
(33,33,cs),
(33,33,ls),
(33,12,o),
(45,0,o),
(66,0,cs)
);
}
);
width = 561;
}
);
unicode = 51;
},
{
glyphname = four;
lastChange = "2023-07-29 00:49:43 +0000";
layers = (
{
layerId = m01;
shapes = (
{
closed = 1;
nodes = (
(429,0,ls),
(450,0,o),
(462,12,o),
(462,33,cs),
(462,81,ls),
(462,102,o),
(474,114,o),
(495,114,cs),
(495,114,ls),
(516,114,o),
(528,126,o),
(528,147,cs),
(528,147,ls),
(528,168,o),
(516,180,o),
(495,180,cs),
(495,180,ls),
(474,180,o),
(462,192,o),
(462,213,cs),
(462,561,ls),
(462,582,o),
(450,594,o),
(429,594,cs),
(66,594,ls),
(45,594,o),
(33,582,o),
(33,561,cs),
(33,147,ls),
(33,126,o),
(45,114,o),
(66,114,cs),
(255,114,ls),
(276,114,o),
(288,102,o),
(288,81,cs),
(288,33,ls),
(288,12,o),
(300,0,o),
(321,0,cs)
);
},
{
closed = 1;
nodes = (
(99,495,ls),
(99,516,o),
(111,528,o),
(132,528,cs),
(327,528,ls),
(348,528,o),
(360,516,o),
(360,495,cs),
(360,213,ls),
(360,192,o),
(348,180,o),
(327,180,cs),
(132,180,ls),
(111,180,o),
(99,192,o),
(99,213,cs)
);
}
);
width = 561;
}
);
unicode = 52;
},
{
glyphname = five;
lastChange = "2023-07-29 00:50:03 +0000";
layers = (
{
layerId = m01;
shapes = (
{
closed = 1;
nodes = (
(495,0,ls),
(516,0,o),
(528,12,o),
(528,33,cs),
(528,297,ls),
(528,318,o),
(516,330,o),
(495,330,c),
(132,330,l),
(111,330,o),
(99,342,o),
(99,363,cs),
(99,495,ls),
(99,516,o),
(111,528,o),
(132,528,cs),
(495,528,ls),
(516,528,o),
(528,540,o),
(528,561,cs),
(528,561,ls),
(528,582,o),
(516,594,o),
(495,594,cs),
(66,594,ls),
(45,594,o),
(33,582,o),
(33,561,cs),
(33,297,ls),
(33,276,o),
(45,264,o),
(66,264,cs),
(321,264,ls),
(342,264,o),
(354,252,o),
(354,231,cs),
(354,99,ls),
(354,78,o),
(342,66,o),
(321,66,cs),
(66,66,ls),
(45,66,o),
(33,54,o),
(33,33,cs),
(33,33,ls),
(33,12,o),
(45,0,o),
(66,0,cs)
);
}
);
width = 561;
}
);
unicode = 53;
},
{
glyphname = six;
lastChange = "2023-07-29 00:50:18 +0000";
layers = (
{
layerId = m01;
shapes = (
{
closed = 1;
nodes = (
(495,0,ls),
(516,0,o),
(528,12,o),
(528,33,cs),
(528,297,ls),
(528,318,o),
(516,330,o),
(495,330,cs),
(168,330,ls),
(147,330,o),
(135,342,o),
(135,363,cs),
(135,495,ls),
(135,516,o),
(147,528,o),
(168,528,cs),
(429,528,ls),
(450,528,o),
(462,540,o),
(462,561,cs),
(462,561,ls),
(462,582,o),
(450,594,o),
(429,594,cs),
(66,594,ls),
(45,594,o),
(33,582,o),
(33,561,cs),
(33,33,ls),
(33,12,o),
(45,0,o),
(66,0,cs)
);
},
{
closed = 1;
nodes = (
(207,231,ls),
(207,252,o),
(219,264,o),
(240,264,cs),
(393,264,ls),
(414,264,o),
(426,252,o),
(426,231,cs),
(426,99,ls),
(426,78,o),
(414,66,o),
(393,66,cs),
(240,66,ls),
(219,66,o),
(207,78,o),
(207,99,cs)
);
}
);
width = 561;
}
);
unicode = 54;
},
{
glyphname = seven;
lastChange = "2023-07-29 00:50:43 +0000";
layers = (
{
layerId = m01;
shapes = (
{
closed = 1;
nodes = (
(495,0,ls),
(516,0,o),
(528,12,o),
(528,33,cs),
(528,561,ls),
(528,582,o),
(516,594,o),
(495,594,cs),
(66,594,ls),
(45,594,o),
(33,582,o),
(33,561,cs),
(33,561,ls),
(33,540,o),
(45,528,o),
(66,528,cs),
(393,528,ls),
(414,528,o),
(426,516,o),
(426,495,cs),
(426,363,ls),
(426,342,o),
(414,330,o),
(393,330,cs),
(387,330,ls),
(366,330,o),
(354,318,o),
(354,297,cs),
(354,33,ls),
(354,12,o),
(366,0,o),
(387,0,cs)
);
}
);
width = 561;
}
);
unicode = 55;
},
{
glyphname = eight;
lastChange = "2023-07-29 01:00:40 +0000";
layers = (
{
layerId = m01;
shapes = (
{
closed = 1;
nodes = (
(495,0,ls),
(516,0,o),
(528,12,o),
(528,33,cs),
(528,297,ls),
(528,318,o),
(516,330,o),
(495,330,cs),
(495,330,ls),
(474,330,o),
(462,342,o),
(462,363,cs),
(462,561,ls),
(462,582,o),
(450,594,o),
(429,594,cs),
(132,594,ls),
(111,594,o),
(99,582,o),
(99,561,cs),
(99,363,ls),
(99,342,o),
(87,330,o),
(66,330,cs),
(66,330,ls),
(45,330,o),
(33,318,o),
(33,297,cs),
(33,33,ls),
(33,12,o),
(45,0,o),
(66,0,cs)
);
},
{
closed = 1;
nodes = (
(135,231,ls),
(135,252,o),
(147,264,o),
(168,264,cs),
(321,264,ls),
(342,264,o),
(354,252,o),
(354,231,cs),
(354,99,ls),
(354,78,o),
(342,66,o),
(321,66,cs),
(168,66,ls),
(147,66,o),
(135,78,o),
(135,99,cs)
);
},
{
closed = 1;
nodes = (
(165,495,ls),
(165,516,o),
(177,528,o),
(198,528,cs),
(327,528,ls),
(348,528,o),
(360,516,o),
(360,495,cs),
(360,363,ls),
(360,342,o),
(348,330,o),
(327,330,cs),
(198,330,ls),
(177,330,o),
(165,342,o),
(165,363,cs)
);
}
);
width = 561;
}
);
unicode = 56;
},
{
glyphname = nine;
lastChange = "2023-07-29 00:51:19 +0000";
layers = (
{
layerId = m01;
shapes = (
{
closed = 1;
nodes = (
(495,0,ls),
(516,0,o),
(528,12,o),
(528,33,cs),
(528,561,ls),
(528,582,o),
(516,594,o),
(495,594,cs),
(66,594,ls),
(45,594,o),
(33,582,o),
(33,561,cs),
(33,297,ls),
(33,276,o),
(45,264,o),
(66,264,cs),
(321,264,ls),
(342,264,o),
(354,252,o),
(354,231,cs),
(354,99,ls),
(354,78,o),
(342,66,o),
(321,66,cs),
(132,66,ls),
(111,66,o),
(99,54,o),
(99,33,cs),
(99,33,ls),
(99,12,o),
(111,0,o),
(132,0,cs)
);
},
{
closed = 1;
nodes = (
(99,495,ls),
(99,516,o),
(111,528,o),
(132,528,cs),
(393,528,ls),
(414,528,o),
(426,516,o),
(426,495,cs),
(426,363,ls),
(426,342,o),
(414,330,o),
(393,330,cs),
(132,330,ls),
(111,330,o),
(99,342,o),
(99,363,cs)
);
}
);
width = 561;
}
);
unicode = 57;
},
{
glyphname = nine.cv01;
lastChange = "2023-07-29 00:51:28 +0000";
layers = (
{
layerId = m01;
shapes = (
{
closed = 1;
nodes = (
(99,495,ls),
(99,516,o),
(111,528,o),
(132,528,cs),
(393,528,ls),
(414,528,o),
(426,516,o),
(426,495,cs),
(426,363,ls),
(426,342,o),
(414,330,o),
(393,330,cs),
(132,330,ls),
(111,330,o),
(99,342,o),
(99,363,cs)
);
},
{
closed = 1;
nodes = (
(495,0,ls),
(516,0,o),
(528,12,o),
(528,33,cs),
(528,561,ls),
(528,582,o),
(516,594,o),
(495,594,cs),
(66,594,ls),
(45,594,o),
(33,582,o),
(33,561,cs),
(33,297,ls),
(33,276,o),
(45,264,o),
(66,264,cs),
(321,264,ls),
(342,264,o),
(354,252,o),
(354,231,cs),
(354,33,ls),
(354,12,o),
(366,0,o),
(387,0,cs)
);
}
);
width = 561;
}
);
},
{
glyphname = "dot-kata";
lastChange = "2023-07-21 07:38:32 +0000";
layers = (
{
layerId = m01;
shapes = (
{
closed = 1;
nodes = (
(33,280,ls),
(33,259,o),
(45,247,o),
(66,247,cs),
(165,247,ls),
(186,247,o),
(198,259,o),
(198,280,cs),
(198,379,ls),
(198,400,o),
(186,412,o),
(165,412,cs),
(66,412,ls),
(45,412,o),
(33,400,o),
(33,379,cs)
);
}
);
width = 231;
}
);
unicode = 12539;
},
{
glyphname = "voicedcomb-kana";
lastChange = "2023-07-21 06:53:28 +0000";
layers = (
{
layerId = m01;
shapes = (
{
closed = 1;
nodes = (
(253,726,ls),
(274,726,o),
(286,738,o),
(286,759,cs),
(286,847,ls),
(286,868,o),
(274,880,o),
(253,880,cs),
(206,880,ls),
(185,880,o),
(173,868,o),
(173,847,cs),
(173,759,ls),
(173,738,o),
(185,726,o),
(206,726,cs)
);
},
{
closed = 1;
nodes = (
(80,726,ls),
(101,726,o),
(113,738,o),
(113,759,cs),
(113,847,ls),
(113,868,o),
(101,880,o),
(80,880,cs),
(33,880,ls),
(12,880,o),
(0,868,o),
(0,847,cs),
(0,759,ls),
(0,738,o),
(12,726,o),
(33,726,cs)
);
}
);
width = 286;
}
);
unicode = 12441;
},
{
glyphname = "semivoicedcomb-kana";
lastChange = "2023-07-21 04:16:22 +0000";
layers = (
{
layerId = m01;
shapes = (
{
closed = 1;
nodes = (
(240,607,ls),
(261,607,o),
(273,619,o),
(273,640,cs),
(273,847,ls),
(273,868,o),
(261,880,o),
(240,880,cs),
(33,880,ls),
(12,880,o),
(0,868,o),
(0,847,cs),
(0,640,ls),
(0,619,o),
(12,607,o),
(33,607,cs)
);
},
{
closed = 1;
nodes = (
(113,774,ls),
(113,795,o),
(125,807,o),
(146,807,cs),
(167,807,ls),
(188,807,o),
(200,795,o),
(200,774,cs),
(200,713,ls),
(200,692,o),
(188,680,o),
(167,680,cs),
(146,680,ls),
(125,680,o),
(113,692,o),
(113,713,cs)
);
}
);
width = 273;
}
);
unicode = 12442;
},
{
export = 0;
glyphname = "voicedcomb-kana.001";
lastChange = "2023-07-26 23:28:45 +0000";
layers = (
{
layerId = m01;
shapes = (
{
closed = 1;
nodes = (
(253,607,ls),
(274,607,o),
(286,619,o),
(286,640,cs),
(286,847,ls),
(286,868,o),
(274,880,o),
(253,880,cs),
(206,880,ls),
(185,880,o),
(173,868,o),
(173,847,cs),
(173,640,ls),
(173,619,o),
(185,607,o),
(206,607,cs)
);
},
{
closed = 1;
nodes = (
(80,607,ls),
(101,607,o),
(113,619,o),
(113,640,cs),
(113,847,ls),
(113,868,o),
(101,880,o),
(80,880,cs),
(33,880,ls),
(12,880,o),
(0,868,o),
(0,847,cs),
(0,640,ls),
(0,619,o),
(12,607,o),
(33,607,cs)
);
}
);
width = 286;
}
);
},
{
glyphname = "prolonged-kana";
lastChange = "2023-07-31 11:22:29 +0000";
layers = (
{
layerId = m01;
shapes = (
{
closed = 1;
nodes = (
(33,297,ls),
(33,276,o),
(45,264,o),
(66,264,cs),
(594,264,ls),
(615,264,o),
(627,276,o),
(627,297,cs),
(627,297,ls),
(627,318,o),
(615,330,o),
(594,330,cs),
(66,330,ls),
(45,330,o),
(33,318,o),
(33,297,cs)
);
}
);
width = 660;
}
);
unicode = 12540;
},
{
glyphname = "prolonged-kana.cv01";
lastChange = "2023-07-28 06:07:10 +0000";
layers = (
{
layerId = m01;
shapes = (
{
closed = 1;
nodes = (
(516,216,ls),
(537,216,o),
(549,228,o),
(549,249,cs),
(549,297,ls),
(549,318,o),
(537,330,o),
(516,330,cs),
(66,330,ls),
(45,330,o),
(33,318,o),
(33,297,cs),
(33,297,ls),
(33,276,o),
(45,264,o),
(66,264,cs),
(282,264,ls),
(303,264,o),
(315,255,o),
(315,240,cs),
(315,240,l),
(315,240,ls),
(315,225,o),
(327,216,o),
(348,216,cs)
);
}
